<?xml version="1.0" encoding="utf-8"?>
<!-- Generator: Adobe Illustrator 26.2.1, SVG Export Plug-In . SVG Version: 6.00 Build 0)  -->
<svg version="1.1" id="Layer_1" xmlns="http://www.w3.org/2000/svg" xmlns:xlink="http://www.w3.org/1999/xlink" x="0px" y="0px"
	 viewBox="0 0 310.5 316.4" style="enable-background:new 0 0 310.5 316.4;" xml:space="preserve">
<style type="text/css">
	.st0{fill:#4B5320;}
</style>
<g id="cambridge1" transform="translate(0 -0.004)">
	<path id="Path_1" class="st0" d="M170.5,195.5v0.5l2,2c3.8,3.7,7.4,7.3,11,10.5l0,0l4.3,4.1l9.5,7.8c0.4,0.3,3.2,1.5,2.9-2.4
		c-0.2-1.3-0.5-2.5-0.8-3.8c-0.2-5.2-0.7-10.4-1.7-15.6c-0.9-1.6-1.9-3.1-3-4.5c-0.5-2.2-1.3-4.3-2.4-6.3c-0.5-0.7-2.1-3-2.6-3.7
		c-1.8-2.4-4.1-4.6-6.6-6.3c-3.4-2.4-4.1-2-8.8-3.1c-3.5-0.5-7.1-0.2-10.4,0.9c1.8,3.1,3.1,6.5,4,9.9
		C169.2,188.8,170,192.1,170.5,195.5z"/>
	<path id="Path_2" class="st0" d="M167.6,135.2c-15.5-2.9-31.4-1.2-45.9,5c-72,32.9-68.5,113-68,121l18.8,9.5
		c0,0-6.3-89.8,69.4-124.8c11.4-6,24.4-8,37-5.7L167.6,135.2z"/>
	<path id="Path_3" class="st0" d="M224.9,202.6c0.1-1.5,0.1-3,0-4.5c-4.3-45.2-35.8-65.9-73.6-51.8c-57.9,21.8-76.1,81.8-73.6,129.2
		c0,2.1,6.2,1.5,8.6,0.4c1.2-0.5,5-2.9,8.9-5.4l2.6-1.5l3.1-1.9c2-1.1,6.2-3.9,7.9-5c4.2-1.6,6.6-6.1,5.3-10.5c0.2-3,0.6-6,1-8.9
		c0.2-1.3-3.4-2.3-3.4-2.3c2.4-1.2,4.2-3.4,5-6c1.1-7.7,3-15.3,5.6-22.7c1-2.7-3.4-4.1-3.4-4.1s5.5,0.5,6,0c1-1.4,2-2.9,2.7-4.2
		c4.2-7.4,9.6-14,16-19.5c0.8-0.8-2.3-7.1-2.3-7.1s4.6,5,7.8,2.6c2.2-1.5,4.5-2.9,7-4c5.4-2.8,11.5-4.3,17.6-4.3
		c2.1,0,4.2,0.4,6.2,0.9c0.7,0,3.1-2.9,3.8-2.5c0.7,0.3-0.5,4,0,4.4c0.5,0.4,4.7,3.4,5.7,4.4c1,1.1,1.8,2.3,2.6,3.5
		c2.2,1.3,4.6,2.2,7.1,2.8c0,0-2.2,2.7-1.5,4.2c1.9,3.9,3.5,8,4.7,12.3c0.1,0.6,0.3,1.1,0.5,1.6c0.2,0.6,0.3,1.2,0.4,1.7v12.2
		c0,2,2.8,4.2,7.7,0.5c3.6-2.9,7.5-5.6,11.5-7.9c1.3-0.9,2.1-2.4,2.1-3.9C225,204.5,225,203.6,224.9,202.6z"/>
	<path id="Path_4" class="st0" d="M53.7,178c-14.3,0.7-28.3,4.2-41.1,10.5c12.1-3.1,24.6-4,37-2.5C50.9,183.3,52.3,180.6,53.7,178z"
		/>
	<path id="Path_5" class="st0" d="M310.5,256.6c-1.7,5.4-4.5,10.5-8.1,14.9c-11.5,14.2-28.1,23.3-46.2,25.5
		c-29.8,5-61.5-7.7-80.6-25.3c-10.7-9.9-19.6-21.5-26.5-34.3c9,9.7,19.2,18.2,30.3,25.2c22,13.9,48.2,19.7,74,16.3
		C292.6,273,309.5,255.5,310.5,256.6z"/>
	<path id="Path_6" class="st0" d="M66.6,159.7c-10.7,0.9-21.2,3.3-31.2,7.3c-13.2,5-25.2,12.6-35.5,22.4
		c11.9-6.6,24.8-11.4,38.1-14.1c6.3-1.3,12.6-2.2,19-2.7C60,168,63.2,163.7,66.6,159.7z"/>
	<path id="Path_7" class="st0" d="M214.1,239c-11.9-8.3-23.1-17.6-33.4-27.8c-9-7.9-17.5-17.8-28.8-26.9c-3.1,3-6.9,6.7-10.7,11
		c13.7,12.7,34.8,35.6,67.8,51.1c13.1,5.9,27,9.9,41.2,11.8C237.5,253,225.5,246.5,214.1,239z"/>
	<path id="Path_8" class="st0" d="M117,136.8c14-5.8,29.3-7.5,44.2-5l-9.5-4.3c-15-3.2-30.6-1.7-44.7,4.4
		c-75.9,34.8-67.9,124.9-67.9,124.9l9.9,5C49,261.8,41.2,171.6,117,136.8z"/>
	<path id="Path_9" class="st0" d="M180.5,236.3c-15.3-11-29.4-23.6-42-37.6c-2.3,2.9-4.4,5.9-6.3,9c10.5,15.6,23.3,29.6,38,41.3
		c27.5,20.7,52.1,27.7,80.9,24.6c12.9-1.4,25.6-4.7,37.5-9.9C289.7,262.1,233.5,274.1,180.5,236.3z"/>
	<path id="Path_10" class="st0" d="M187.3,288c-15-9.6-27.6-22.5-37-37.6c-6.8-10.5-13.2-24.8-21-37.4c-3.4,6.8-5.6,14.2-6.6,21.8
		c-0.2,2.3-0.2,4.7,0,7.1c2,3.5,4,7.2,6.1,11.1c18,34.3,37.9,48.5,64,58c31.6,10.1,66.1,3.3,91.5-18
		C248.9,313.7,204.1,298.7,187.3,288z"/>
</g>
</svg>
