<svg id="top" xmlns="http://www.w3.org/2000/svg" width="223.392" height="181" viewBox="0 0 223.392 181">
  <g id="cambridge1">
    <path id="Path_1" data-name="Path 1" d="M37.719,24.906v.357l1.43,1.43c2.717,2.681,5.291,5.255,7.936,7.543h0l3.11,2.931,6.864,5.612c.286.25,2.324,1.072,2.109-1.716a17.483,17.483,0,0,0-.608-2.717,73.032,73.032,0,0,0-1.215-11.189A33.925,33.925,0,0,0,55.2,23.905a19.019,19.019,0,0,0-1.716-4.54c-.357-.536-1.537-2.145-1.895-2.645a21.056,21.056,0,0,0-4.719-4.54c-2.467-1.752-2.931-1.43-6.363-2.252A16.444,16.444,0,0,0,33,10.607a28.6,28.6,0,0,1,2.9,7.15A32.567,32.567,0,0,1,37.719,24.906Z" transform="translate(84.97 25.126)" fill="#4b5320"/>
    <path id="Path_2" data-name="Path 2" d="M92.864,2.567A57.555,57.555,0,0,0,59.833,6.142C8,29.843,10.571,87.47,10.893,93.19l13.513,6.828s-4.5-64.6,49.9-89.8a41.218,41.218,0,0,1,26.633-4.075Z" transform="translate(27.751 4.066)" fill="#4b5320"/>
    <path id="Path_3" data-name="Path 3" d="M121.655,46.856a24.241,24.241,0,0,0,0-3.217c-3.11-32.5-25.739-47.438-52.943-37.25C27.029,22.047,13.945,65.231,15.768,99.335c0,1.537,4.433,1.072,6.22.286.894-.393,3.575-2.073,6.4-3.9l1.895-1.108,2.252-1.358c1.43-.822,4.433-2.824,5.684-3.575a6.22,6.22,0,0,0,3.825-7.543c.179-2.145.429-4.29.751-6.4.179-.965-2.431-1.68-2.431-1.68a7.15,7.15,0,0,0,3.575-4.29,81.791,81.791,0,0,1,4.04-16.3c.751-1.93-2.467-2.931-2.467-2.931s3.932.357,4.29,0c.715-1.037,1.43-2.073,1.966-3.039A52.228,52.228,0,0,1,63.278,33.486c.608-.572-1.644-5.112-1.644-5.112s3.325,3.575,5.612,1.895a30.172,30.172,0,0,1,5-2.86,27.169,27.169,0,0,1,12.691-3.074,16.909,16.909,0,0,1,4.469.679c.5,0,2.216-2.073,2.717-1.823s-.393,2.9,0,3.182,3.36,2.467,4.111,3.146a20.023,20.023,0,0,1,1.895,2.5,17.552,17.552,0,0,0,5.112,2s-1.609,1.93-1.072,3.039a48.834,48.834,0,0,1,3.36,8.83,4.953,4.953,0,0,0,.357,1.18q.174.618.286,1.251V57.08c0,1.43,2.038,3.039,5.541.393a73.752,73.752,0,0,1,8.258-5.72,3.575,3.575,0,0,0,1.537-2.824A5.923,5.923,0,0,0,121.655,46.856Z" transform="translate(40.178 8.288)" fill="#4b5320"/>
    <path id="Path_4" data-name="Path 4" d="M32.13,10.49a75.071,75.071,0,0,0-29.6,7.579,71.5,71.5,0,0,1,26.6-1.787Q30.575,13.225,32.13,10.49Z" transform="translate(6.514 26.994)" fill="#4b5320"/>
    <path id="Path_5" data-name="Path 5" d="M146.147,36.249a32.173,32.173,0,0,1-5.827,10.725,50.763,50.763,0,0,1-33.246,18.375C85.624,68.923,62.817,59.843,49.09,47.116A95.234,95.234,0,0,1,30,22.45,110.82,110.82,0,0,0,51.807,40.61a80.577,80.577,0,0,0,53.265,11.761C133.277,48.01,145.432,35.391,146.147,36.249Z" transform="translate(77.245 57.789)" fill="#4b5320"/>
    <path id="Path_6" data-name="Path 6" d="M47.939,6.79a77.9,77.9,0,0,0-22.414,5.255A76.859,76.859,0,0,0,0,28.132,97.379,97.379,0,0,1,27.419,17.979a98.093,98.093,0,0,1,13.656-1.93A86.082,86.082,0,0,1,47.939,6.79Z" transform="translate(0 17.467)" fill="#4b5320"/>
    <path id="Path_7" data-name="Path 7" d="M80.889,51.073A186.82,186.82,0,0,1,56.83,31.09c-6.506-5.684-12.583-12.834-20.7-19.34-2.252,2.181-4.933,4.79-7.722,7.936,9.867,9.152,25.024,25.632,48.761,36.785a109.175,109.175,0,0,0,29.635,8.508A157.077,157.077,0,0,1,80.889,51.073Z" transform="translate(73.151 30.239)" fill="#4b5320"/>
    <path id="Path_8" data-name="Path 8" d="M64.049,7.817A57.2,57.2,0,0,1,95.83,4.243L89,1.168A53.623,53.623,0,0,0,56.828,4.314C2.24,29.374,8,94.186,8,94.186l7.15,3.575S9.533,32.877,64.049,7.817Z" transform="translate(20.138 -0.004)" fill="#4b5320"/>
    <path id="Path_9" data-name="Path 9" d="M61.367,41.7A186.606,186.606,0,0,1,31.124,14.64a62.025,62.025,0,0,0-4.5,6.506A134.235,134.235,0,0,0,53.932,50.889c19.8,14.871,37.5,19.948,58.234,17.7a91.444,91.444,0,0,0,26.99-7.15C139.942,60.291,99.475,68.942,61.367,41.7Z" transform="translate(68.542 37.68)" fill="#4b5320"/>
    <path id="Path_10" data-name="Path 10" d="M71.24,71.459A86.94,86.94,0,0,1,44.608,44.433C39.71,36.854,35.1,26.559,29.486,17.55a48.582,48.582,0,0,0-4.719,15.694,34.424,34.424,0,0,0,0,5.076c1.43,2.5,2.9,5.184,4.361,7.972,12.941,24.7,27.24,34.89,46.044,41.754a69.5,69.5,0,0,0,65.849-12.977C115.568,89.9,83.359,79.144,71.24,71.459Z" transform="translate(63.531 45.173)" fill="#4b5320"/>
  </g>
  <text id="Cambridge" transform="translate(58.696 177)" fill="#4b5320" font-size="20" font-family="LucidaBright-Demi, Lucida Bright" font-weight="300"><tspan x="0" y="0">Cambridge</tspan></text>
</svg>
