<svg xmlns="http://www.w3.org/2000/svg" width="89" height="110.543" viewBox="0 0 89 110.543">
  <g id="dogs" transform="translate(0 0)">
    <g id="Layer_1" transform="translate(6 0)">
      <g id="Group_10" data-name="Group 10" transform="translate(0 0)">
        <path id="Path_35" data-name="Path 35" d="M55.341,14.224a1.353,1.353,0,0,0-1.548,2.038,12.424,12.424,0,0,1,1.12,9.92,2.835,2.835,0,0,1-1.6,1.747,11.39,11.39,0,0,0-6.845-.324l-.947.252a32.9,32.9,0,0,1-4.555.993,6.239,6.239,0,0,1-6.487-3.863c-2.014-5.009-4.223-7.045-5.511-7.853-.031-2.822-1.935-5.7-3.752-6.146a2.219,2.219,0,0,0-2.589,1.425,1.367,1.367,0,0,0-.344-.363,2.844,2.844,0,0,0-3-.507,2.1,2.1,0,0,0-1.043,2.041,1.336,1.336,0,0,0,.156.589,3.906,3.906,0,0,1,.3,2.235,1.334,1.334,0,0,0,.863,1.452c-1.413,1.014-2.834,2.262-3.2,3.389a1.269,1.269,0,0,0-.06.284c-.029.293-.029.695-.026,1.135a8.66,8.66,0,0,1-.094,1.788c-.358.481-1.805,2.029-2.574,2.834a2,2,0,0,0-.659,1.695,3.618,3.618,0,0,0,1.925,2.545,5.873,5.873,0,0,0,5.723.2l1.853-.947.168-.007c.3-.017.548-.07.82-.108a41.509,41.509,0,0,1,.5,5.853,38.607,38.607,0,0,0,.454,5.548A7.6,7.6,0,0,0,25.675,45.1a1.288,1.288,0,0,0-1.37,1.014,17.617,17.617,0,0,1-1.49,2.041C20.265,51.392,16,56.807,19.327,60.52a2.286,2.286,0,0,0,1.481.543,3.086,3.086,0,0,0,1.538-.457c1.586-.909,4-3.932,3.952-5.653.108-.428,1.324-1.353,1.913-1.8a9.362,9.362,0,0,0,1.745-1.6c.786,3.113.7,6.531.284,7.434-.231.437-.55.577-1.192.827a5.626,5.626,0,0,0-1.168.565,4.174,4.174,0,0,0-1.526,3.884,1.614,1.614,0,0,0,1.558,1.175l4.639,0c1.538-.132,2.882-2.194,4-6.134a1.266,1.266,0,0,0,.048-.252l.728-8.47a1.311,1.311,0,0,0-.019-.363l-.433-2.322a16.328,16.328,0,0,0,5.648-1.719,17.4,17.4,0,0,1,2.038-.868,7.3,7.3,0,0,0,.848,2.853,32.33,32.33,0,0,0,4.533,5.581,23.217,23.217,0,0,1,1.928,2.175,12.426,12.426,0,0,1-.8,3.855l-.233.144a4.2,4.2,0,0,0-2.545,4.235,1.352,1.352,0,0,0,1.344,1.19H54.67a1.706,1.706,0,0,0,1.392-.793c1.113-1.519,3.632-9.864,3.074-11.621a5.172,5.172,0,0,0-.861-1.5,2.579,2.579,0,0,1-.642-2.836,9.564,9.564,0,0,1,.644-1.262,17.559,17.559,0,0,0,2.591-8.014,11.221,11.221,0,0,0-2.262-7.461c1.363-.916,2.4-2.812,2.812-5.365C62.179,21.8,60.6,15.96,55.341,14.224ZM21.346,14.5a1.337,1.337,0,0,0,1.091-.416,5.946,5.946,0,0,1-.644,2.334c-.12.07-.26.159-.394.24A6.94,6.94,0,0,0,21.346,14.5Zm7.326,11.34a1.363,1.363,0,0,0-1.875.344,5.638,5.638,0,0,1-4.3,1.892l-.437.017a1.328,1.328,0,0,0-.56.147l-2.12,1.082a3.164,3.164,0,0,1-3.072-.094,3,3,0,0,1-.469-.353c.661-.7,2.067-2.192,2.548-2.836a5.984,5.984,0,0,0,.606-3.392c0-.245,0-.471,0-.661a16.722,16.722,0,0,1,4.476-3.413,1.326,1.326,0,0,0,.461-.44,8.73,8.73,0,0,0,1.231-3.983,5.051,5.051,0,0,1,1.07,3.574,1.411,1.411,0,0,0,.952,1.517c.024.007,2.435.882,4.8,6.759.1.238.226.452.339.675-2.663,2.971-4.93,3.726-6.129,3.875-.034-.207-.087-.392-.127-.591a7.335,7.335,0,0,0,2.98-2.264A1.338,1.338,0,0,0,28.672,25.836ZM27.9,49.872a8.735,8.735,0,0,1-1.315,1.122c-1.4,1.07-2.995,2.281-2.959,4.2a.729.729,0,0,1-.007-.245,8.145,8.145,0,0,1-2.608,3.324c-1.108-2.038,2.151-6.172,3.944-8.449,1.238-1.57,1.839-2.356,1.993-3.086a1.208,1.208,0,0,0,0-.228c.161.156.327.322.481.466a6.587,6.587,0,0,1,1.413,1.606c.113.2.2.437.3.654A1.353,1.353,0,0,0,27.9,49.872ZM55.925,46a12.145,12.145,0,0,0-.834,1.678,5.22,5.22,0,0,0,1.019,5.35c.18.248.409.55.43.589.12,1.195-1.591,7.319-2.461,9.006H51.526a1.193,1.193,0,0,1,.365-.228,1.351,1.351,0,0,0,.252-.12l.757-.461a1.356,1.356,0,0,0,.572-.709c.582-1.668,1.478-4.68.942-6.117a12.164,12.164,0,0,0-2.5-3.117,30.654,30.654,0,0,1-4.149-5.057c-1.195-2.113-.2-5.8.279-7.043a1.352,1.352,0,0,0-2.519-.985,17.627,17.627,0,0,0-.9,3.73,13.948,13.948,0,0,0-3.245,1.2,14.335,14.335,0,0,1-4.307,1.473,2.084,2.084,0,0,1,.123-.228,1.351,1.351,0,1,0-2.043-1.769,4.875,4.875,0,0,0-1.187,3.281c0,.014-.01.026-.012.041a1.273,1.273,0,0,0,.029.214,4.781,4.781,0,0,0,.046.613l.6,3.18-.7,8.158a13.912,13.912,0,0,1-1.759,4.05H29.307a.636.636,0,0,1,.1-.123,3.889,3.889,0,0,1,.623-.279,4.454,4.454,0,0,0,2.642-2.151c1.036-2.219.786-8.886-1.466-12.9A9.058,9.058,0,0,0,29.269,45a5.866,5.866,0,0,1-2.214-3.447,36.641,36.641,0,0,1-.406-5.134c-.041-1.067-.091-2.142-.166-3.194,1.695-.212,4.442-1.127,7.454-4.3a8.918,8.918,0,0,0,7.353,2.615,34.9,34.9,0,0,0,4.939-1.065l.933-.248a8.742,8.742,0,0,1,7.829,1.731,8.587,8.587,0,0,1,3.19,7.2A15.039,15.039,0,0,1,55.925,46ZM58.754,26.05c-.387,2.42-1.423,3.709-2.019,3.709a.927.927,0,0,0-.137.029c-.195-.156-.4-.291-.6-.433a6.353,6.353,0,0,0,1.416-2.144,14.083,14.083,0,0,0,.522-7.36A10.4,10.4,0,0,1,58.754,26.05Z" transform="translate(15.463 12.634)" fill="#4b5320"/>
        <path id="Path_36" data-name="Path 36" d="M35.865,27.786A4.827,4.827,0,0,0,35.5,25.6,2.285,2.285,0,0,0,32.64,24.25a16.486,16.486,0,0,1-2.481.687c-.858-.678-1.841-.882-4.274-.1a5.1,5.1,0,0,0-3.661,4.709,1.46,1.46,0,0,1-.558.089A15.987,15.987,0,0,1,19.8,29.18a23.289,23.289,0,0,0-6.725-1.151c-2.644.13-5.713,1.195-7.124,3.214-1.88.719-4.581,3.045-4.153,8.052a1.354,1.354,0,0,0,1.346,1.238c.038,0,.077,0,.115,0a1.352,1.352,0,0,0,1.233-1.461,6.707,6.707,0,0,1,.38-3.117A16.375,16.375,0,0,0,5.1,38.422a2.231,2.231,0,0,1-.3,1.125,3.543,3.543,0,0,0-.377,2.384A20.178,20.178,0,0,0,5.472,44.8a3.167,3.167,0,0,0,2.964,2.067h2.332a1.61,1.61,0,0,0,1.485-.906c.613-1.262-.613-2.853-.623-2.863a3.921,3.921,0,0,0-1.127-.906,2.231,2.231,0,0,1-.012-.409c.166-.1.332-.19.5-.279a5.307,5.307,0,0,0,1.933-1.6,12.782,12.782,0,0,1,3.276.308,13.881,13.881,0,0,0,2.639.332c.132,0,.274-.034.409-.041a3.486,3.486,0,0,0-.091,1.949c.267.76,1,2.733,1.007,2.74a3.167,3.167,0,0,0,2.964,2.067h2.332a1.61,1.61,0,0,0,1.485-.906c.613-1.262-.613-2.853-.625-2.865a3.976,3.976,0,0,0-1.137-.911,1.429,1.429,0,0,0-.082-.368c.1-.084.214-.171.344-.267a5.484,5.484,0,0,0,2.175-2.685,1.322,1.322,0,0,0-.19-1.173c.038,0,.077.007.115.007a7.584,7.584,0,0,0,1.829-.236c1.252-.317,1.9-.769,2.1-1.469.233-.824-.262-1.437-.786-2.086-.137-.168-.392-.49-.6-.8a7.623,7.623,0,0,0,1.178-1.065,4.187,4.187,0,0,1,.916-.81C34.536,30.432,35.74,29.177,35.865,27.786ZM25.051,38.412a2.993,2.993,0,0,1-1.216,1.356c-.2.147-.373.276-.519.406-1.305,1.154-.733,3.3-.6,3.718a1.338,1.338,0,0,0,.449.659h-.034a.462.462,0,0,1-.43-.305s-.731-1.947-.947-2.466a9.675,9.675,0,0,1,.293-1.315,12.136,12.136,0,0,0,.474-2.413,1.352,1.352,0,0,0-1.291-1.411,1.32,1.32,0,0,0-1.344,1.031,6.825,6.825,0,0,1-3.175-.118,16.21,16.21,0,0,0-3.418-.387,1.319,1.319,0,0,0-.728-.449,1.357,1.357,0,0,0-1.6,1.05c-.149.728-.423.906-1.264,1.363a9.789,9.789,0,0,0-1.074.656c-1.305,1.154-.733,3.3-.6,3.718a1.338,1.338,0,0,0,.449.659H8.438a.51.51,0,0,1-.464-.389A17.672,17.672,0,0,1,7.056,41.3a1.851,1.851,0,0,1,.219-.651A4.82,4.82,0,0,0,7.786,38.1a10.334,10.334,0,0,1,.1-4.757c.007-.017,0-.034.01-.048s.022-.036.029-.058c.375-1.255,2.747-2.38,5.286-2.507a21.139,21.139,0,0,1,5.867,1.055,11.148,11.148,0,0,0,2.586.555,3.366,3.366,0,0,0,2.406-.856c-.264,1.445-.57,4.276.723,5.62a2.8,2.8,0,0,0,.853.582A1.345,1.345,0,0,0,25.051,38.412Zm5.918-9.206a6.116,6.116,0,0,0-1.663,1.365c-.356.375-.76.8-1.019.834-.036,0-.065.026-.1.034a1.288,1.288,0,0,0-.267.089,1.317,1.317,0,0,0-.216.113,1.344,1.344,0,0,0-.187.163,1.375,1.375,0,0,0-.18.212,1.407,1.407,0,0,0-.1.19,1.29,1.29,0,0,0-.1.3c0,.031-.024.058-.029.089a1.98,1.98,0,0,0,.007.207c0,.038-.012.072-.007.111,0,.014.01.024.012.038a4.355,4.355,0,0,0,.957,2.4,2.159,2.159,0,0,1-1.334-.113c-.3-.389-.262-2.214.082-3.752a1.339,1.339,0,0,0-1.976-1.464,2.6,2.6,0,0,0,.077-.267,2.37,2.37,0,0,1,1.779-2.341c1.394-.447,1.771-.373,1.812-.324a2.925,2.925,0,0,0,.577.389c.611.3,1.416.3,4.009-.538a1.708,1.708,0,0,1,.067.591C33.173,27.543,33,28.178,30.969,29.206Z" transform="translate(-0.244 31.156)" fill="#4b5320"/>
        <path id="Path_37" data-name="Path 37" d="M13.13,11.985A3.276,3.276,0,0,0,9.237,17.2a1.352,1.352,0,1,0,1.848-1.973.566.566,0,0,1-.178-.43.577.577,0,0,1,.228-.437.569.569,0,0,1,.625-.043.582.582,0,0,1,.3.543,4.223,4.223,0,0,0,1.437,3.492,1.352,1.352,0,1,0,1.774-2.041,1.538,1.538,0,0,1-.51-1.276A3.287,3.287,0,0,0,13.13,11.985Z" transform="translate(8.812 13.489)" fill="#4b5320"/>
        <path id="Path_38" data-name="Path 38" d="M11.955,14.4a1.356,1.356,0,0,0,.615,2.565,1.356,1.356,0,1,0-.615-2.565Z" transform="translate(13.04 17.299)" fill="#4b5320"/>
        <path id="Path_39" data-name="Path 39" d="M13.564,12.843a1.3,1.3,0,0,0-.351.252,1.365,1.365,0,0,0-.4.961,1.355,1.355,0,1,0,.748-1.214Z" transform="translate(15.287 15.118)" fill="#4b5320"/>
        <path id="Path_40" data-name="Path 40" d="M13.3,10.185a1.352,1.352,0,0,0-2.276,1.459L14.128,16.5A1.352,1.352,0,1,0,16.4,15.038Z" transform="translate(12.468 10.717)" fill="#4b5320"/>
        <path id="Path_41" data-name="Path 41" d="M80.595,1.126h-2.7V5.183H72.182V1.126h-2.7V5.183H63.769V1.126h-2.7V5.183H55.357V1.126h-2.7V5.183H46.944V1.126h-2.7V5.183H38.531V1.126h-2.7V5.183H30.119V1.126h-2.7V5.183H21.7V1.126H19V5.183H13.291V1.126h-2.7V5.183H4.878V1.126h-2.7V5.183H1.124v2.7h1.05v4.687H1.124v2.7H82.241V12.572H80.592V7.885h1.649v-2.7H80.592V1.126ZM69.478,7.885v4.687H63.769V7.885Zm-8.413,0v4.687H55.357V7.885Zm-8.413,0v4.687H46.944V7.885Zm-8.413,0v4.687H38.531V7.885Zm-8.413,0v4.687H30.119V7.885Zm-8.413,0v4.687H21.7V7.885ZM19,7.885v4.687H13.291V7.885Zm-14.121,0h5.709v4.687H4.878Zm73.012,4.687H72.182V7.885h5.709Z" transform="translate(-1.124 -1.126)" fill="#4b5320"/>
      </g>
    </g>
    <text id="Dog_Parks" data-name="Dog Parks" transform="translate(0 106.543)" fill="#4b5320" font-size="18" font-family="LucidaBright, Lucida Bright"><tspan x="0" y="0">Dog Parks</tspan></text>
  </g>
</svg>
