<svg xmlns="http://www.w3.org/2000/svg" width="86.855" height="100.98" viewBox="0 0 86.855 100.98">
  <g id="gardens" transform="translate(0)">
    <g id="RockwayGardens" transform="translate(0 0)">
      <path id="Path_68" data-name="Path 68" d="M85.238,71.323H79.962c-.1-.482-.254-1.091-.38-1.8.051-1.091.888-2.435,1.979-4.135,2.486-3.881,6.215-9.715,6.215-21.029a1.5,1.5,0,0,0-2.993,0c0,10.426-3.323,15.626-5.758,19.405-.076.1-.127.2-.178.279-.025-.583-.051-1.167-.051-1.75a23.306,23.306,0,0,1,.989-5.657,57.282,57.282,0,0,0,2-15.3,21.92,21.92,0,0,0-4.794-14.332c.127-.025.228-.051.355-.076A4.286,4.286,0,0,0,80.063,21.5a4.638,4.638,0,0,0-2.055-2.663,5.226,5.226,0,0,0,.228-1.623A4.183,4.183,0,0,0,74,12.9,4.335,4.335,0,0,0,70.931,14.1a5.493,5.493,0,0,0-1.446-.736,4.12,4.12,0,0,0-3.247.2,4.226,4.226,0,0,0-2.131,2.562,4.522,4.522,0,0,0,.178,3.374,5.151,5.151,0,0,0-1.141,1.192,4.279,4.279,0,0,0,.939,6.012,4.432,4.432,0,0,0,3.171.888,5.7,5.7,0,0,0,.736,1.471A4.294,4.294,0,0,0,70.8,30.838a4.926,4.926,0,0,0,.609.051,4.309,4.309,0,0,0,2.537-.862,4.208,4.208,0,0,0,.888-.888A19.068,19.068,0,0,1,78.77,41.365a51.252,51.252,0,0,1-1.294,11.922c-1.953-3.12-2.613-8.878-1.725-13.14a1.5,1.5,0,0,0-2.943-.609c-1.065,5.251-.279,13.825,3.78,17.376a22.737,22.737,0,0,0-.837,5.378,43.01,43.01,0,0,0,1.091,8.98H65.325v-.507c4.667-1.953,7.458-5.581,7.458-9.969a22.862,22.862,0,0,0-1.623-8.067,1.5,1.5,0,0,0-1.319-.913,1.558,1.558,0,0,0-1.4.812c-.33.66-2.105,4.109-3.653,7.965a70.22,70.22,0,0,0-2.08-12.151,4.516,4.516,0,0,0,1.116.2,3.271,3.271,0,0,0,1.015-.152,4.383,4.383,0,0,0,2.866-5.657,4.618,4.618,0,0,0-2.562-2.79,4.727,4.727,0,0,0,1.6-3.2,4.389,4.389,0,0,0-4.49-4.49,4.565,4.565,0,0,0-3.45,1.573,4.779,4.779,0,0,0-2.537-2.511,4.386,4.386,0,0,0-5.657,2.866,4.6,4.6,0,0,0,.431,3.754,4.6,4.6,0,0,0-3.171,1.649,4.491,4.491,0,0,0,3.678,7.128,4.746,4.746,0,0,0,1.015-.1,4.688,4.688,0,0,0,.583,3.526,4.385,4.385,0,0,0,3.577,1.877,4.73,4.73,0,0,0,2.689-.888,5.617,5.617,0,0,0,.71-.66,84.845,84.845,0,0,1,1.9,13.343c-2.384-2.866-4.566-5.53-4.591-5.555a1.492,1.492,0,0,0-1.852-.381c-1.37.71-2.308,3.653-2.308,5.834.025,4.236,4.388,6.9,9.03,7.382v.1H46.174a46.018,46.018,0,0,0,.837-5.023c4.033-2.638,4.794-5.4,4.769-11.466a1.483,1.483,0,0,0-1.5-1.5h0a1.5,1.5,0,0,0-1.5,1.5c.025,4.059-.355,5.986-1.522,7.382,0-.457.025-.964.025-1.4.051-6.849-1.4-10.755-1.471-10.933A1.491,1.491,0,0,0,43.891,49,1.515,1.515,0,0,0,43,50.928a30,30,0,0,1,1.268,9.842c0,1.4-.076,3.044-.228,4.82a106.186,106.186,0,0,1-2.765-22.779c0-9.056,1.8-14.662,2.537-16.539,10.045-.38,15.423-6.164,15.423-10.4a4.191,4.191,0,0,0-1.547-3.5,5.073,5.073,0,0,0-2.968-.939v-.076A5.726,5.726,0,0,0,48.736,5.37a5.053,5.053,0,0,0-3.272,1.167A4,4,0,0,0,42.749,5.37c-2.41,0-5.986,2-5.986,7.483,0,5.225,3.095,10.35,4.287,12.151-.812,2.029-2.79,7.99-2.79,17.782a112.816,112.816,0,0,0,4.059,28.461h-8.8a10.179,10.179,0,0,0,3.247-7.483,25.942,25.942,0,0,0-.837-6.646,22.519,22.519,0,0,1-.66-3.957,1.47,1.47,0,0,0-1.344-1.37,1.544,1.544,0,0,0-1.6,1.065A16.521,16.521,0,0,1,29.99,57.27a21.707,21.707,0,0,0-3.526,7.458,18.6,18.6,0,0,1-.2-2.486c0-2.334,1.319-4.972,2.689-7.762,1.623-3.247,3.3-6.621,3.3-10.223a15.072,15.072,0,0,0-.989-5.251,5.933,5.933,0,0,0,.837-1.243A8.809,8.809,0,0,0,36.611,33.3a10.733,10.733,0,0,0-.025-7.585,1.552,1.552,0,0,0-.862-.837,1.4,1.4,0,0,0-1.192.076l-1.979,1.015L30.32,23.735a1.485,1.485,0,0,0-2.105,0l-2.232,2.232L24,24.953a1.623,1.623,0,0,0-1.192-.076,1.552,1.552,0,0,0-.862.837,10.733,10.733,0,0,0-.025,7.585,8.809,8.809,0,0,0,4.515,4.464,4.391,4.391,0,0,0,1.979,2.131,11.857,11.857,0,0,1,.862,4.363c0,2.892-1.522,5.936-2.968,8.878-1.471,2.968-3.019,6.037-3.019,9.081A14.984,14.984,0,0,0,25.8,71.2H12.893v-.634c5.555-3.069,8.98-11.136,8.98-17.325A38.663,38.663,0,0,0,20.3,42.3a1.5,1.5,0,0,0-1.37-1.04,1.539,1.539,0,0,0-1.446.939c-.178.431-2.562,6.316-4.591,12.683V29.113a4.077,4.077,0,0,0,1.5.254c2.892,0,5.986-3.424,5.986-8.98A18.839,18.839,0,0,0,18.7,12.194a1.462,1.462,0,0,0-.964-.761,1.608,1.608,0,0,0-1.167.228L13.527,13.69c-.457-.862-.786-1.471-.837-1.547a1.54,1.54,0,0,0-2.562,0c-.051.076-.406.685-.837,1.547L6.247,11.661a1.5,1.5,0,0,0-2.156.558,18.709,18.709,0,0,0-1.674,8.193c0,5.555,3.12,8.98,5.986,8.98a4.69,4.69,0,0,0,1.5-.254V54.987C7.845,48.62,5.461,42.735,5.308,42.3a1.579,1.579,0,0,0-1.446-.939,1.5,1.5,0,0,0-1.37,1.04A39.752,39.752,0,0,0,.92,53.338c0,6.215,3.424,14.256,8.98,17.325V71.3H3.457a1.5,1.5,0,1,0,0,2.993H85.238a1.484,1.484,0,1,0,0-2.968ZM72.174,27.616a1.178,1.178,0,0,1-.888.254,1.375,1.375,0,0,1-.837-.558,1.729,1.729,0,0,1-.38-1.547,1.476,1.476,0,0,0-.66-1.75,1.375,1.375,0,0,0-.761-.2,1.409,1.409,0,0,0-1.091.482,1.2,1.2,0,0,1-1.649.025,1.314,1.314,0,0,1-.279-1.877A1.761,1.761,0,0,1,66.9,21.6a1.483,1.483,0,0,0,1.5-1.5,1.463,1.463,0,0,0-.862-1.344c-.837-.457-.558-1.471-.507-1.7a1.258,1.258,0,0,1,.634-.786,1.319,1.319,0,0,1,.939-.051,1.935,1.935,0,0,1,1.192.964,1.516,1.516,0,0,0,1.446,1.167,1.416,1.416,0,0,0,1.5-1.4v-.025a1.25,1.25,0,0,1,1.344-1.015,1.235,1.235,0,0,1,1.268,1.319,2.015,2.015,0,0,1-.507,1.446,1.5,1.5,0,0,0,.837,2.74h0a.417.417,0,0,0,.254-.025c.862-.152,1.243.685,1.344,1.04a1.273,1.273,0,0,1-.812,1.674,1.73,1.73,0,0,1-1.471-.076,1.5,1.5,0,0,0-2.207,1.9,1.363,1.363,0,0,1,.127.533v.178A2.5,2.5,0,0,1,72.174,27.616ZM69.46,57.5a17.594,17.594,0,0,1,.355,3.348,7.491,7.491,0,0,1-4.109,6.519A60.688,60.688,0,0,1,69.46,57.5Zm-5.5-11.821c-.406.1-2.08-.431-3.45-2.283a7.6,7.6,0,0,0-.406-.913c.279-.025.583-.076.888-.076,1.547-.076,3.475.1,3.881,1.4A1.381,1.381,0,0,1,63.956,45.677Zm-1.649-10.3a1.425,1.425,0,0,1,1.5,1.5c-.025.431-1.065,1.826-3.247,2.537-.33.025-.685.051-.989.1.051-.279.1-.558.178-.837C60.176,37.18,60.937,35.378,62.307,35.378Zm-8.8-.127a1.375,1.375,0,0,1,.736-.888,1.427,1.427,0,0,1,1.167-.051c.406.152,1.4,1.6,1.421,3.881-.076.33-.152.66-.2.964a6.04,6.04,0,0,1-.761-.457C54.545,37.814,53.1,36.545,53.5,35.252Zm-2.841,8.32a1.4,1.4,0,0,1-.33-2.08c.279-.33,1.928-.862,4.109-.178.3.178.583.355.862.507-.2.2-.406.38-.634.583C53.454,43.369,51.78,44.384,50.664,43.572Zm7.052,5.276a1.429,1.429,0,0,1-2.08-.33c-.228-.355-.228-2.131,1.141-4.008.254-.228.507-.431.736-.634.1.228.228.482.33.761h0v.025a.025.025,0,0,0,.025.025C58.4,46.185,58.806,48.062,57.715,48.848Zm-1.4,14.966a7.057,7.057,0,0,1,.254-1.826c1.294,1.573,3.272,3.957,5.073,6.088C59.009,67.568,56.346,66.123,56.32,63.814Zm-.38-49.033c.1.076.38.3.38,1.116,0,2.055-2.714,5.631-8.675,6.95,2.41-2.207,5.225-5.276,6.494-8.371A3.116,3.116,0,0,1,55.94,14.781Zm-7.1-6.367a2.769,2.769,0,0,1,2.993,2.993c0,3.2-4.236,7.559-7.432,10.324C44.8,9.784,47.594,8.414,48.837,8.414Zm-5.986,0a1.315,1.315,0,0,1,.888.558c-1.4,2.689-2,6.6-2.232,10.5a16.434,16.434,0,0,1-1.649-6.6C39.857,9.353,41.811,8.414,42.851,8.414ZM24.384,28.555l1.319.66a1.55,1.55,0,0,0,1.75-.279l1.928-1.928,1.928,1.928a1.543,1.543,0,0,0,1.75.279l1.319-.66a5.934,5.934,0,0,1-3.983,6.9,4.931,4.931,0,0,1-1.04.178,4.685,4.685,0,0,1-.862-.127c-.025,0-.025-.025-.051-.025A5.951,5.951,0,0,1,24.384,28.555ZM32.6,58.995c.2-.279.38-.583.583-.862a22.985,22.985,0,0,1,.685,5.707,7.746,7.746,0,0,1-4.49,6.9l-.1-.1C28.646,65.032,30.649,61.963,32.6,58.995ZM18.5,48.062a36.52,36.52,0,0,1,.38,5.276c0,4.744-2.308,10.73-5.91,13.749C13.451,62.191,16.495,53.439,18.5,48.062Zm-1.826-32.85a18.223,18.223,0,0,1,.736,5.2,7.249,7.249,0,0,1-1.979,5.479,14.728,14.728,0,0,0,.482-3.983,15.872,15.872,0,0,0-1.167-5.4Zm-3.78,6.7c0,2.993-.507,4.49-1.5,4.49a.841.841,0,0,1-.507-.228.636.636,0,0,0-.178-.1c-.533-.583-.812-1.979-.812-4.16a15.225,15.225,0,0,1,1.5-5.682A15.225,15.225,0,0,1,12.893,21.909Zm-7.483-1.5a18.223,18.223,0,0,1,.736-5.2l1.928,1.294a15.872,15.872,0,0,0-1.167,5.4,14.728,14.728,0,0,0,.482,3.983A7.349,7.349,0,0,1,5.41,20.412Zm-1.5,32.926a36.015,36.015,0,0,1,.406-5.276c2,5.378,5.023,14.129,5.53,19.025C6.222,64.093,3.913,58.081,3.913,53.338Z" transform="translate(-0.92 -5.37)" fill="#4b5320"/>
      <path id="Path_69" data-name="Path 69" d="M29.577,11.3a1.5,1.5,0,1,0,1.5,1.5A1.5,1.5,0,0,0,29.577,11.3Z" transform="translate(39.777 -4.519)" fill="#4b5320"/>
    </g>
    <text id="Gardens-2" data-name="Gardens" transform="translate(1 96.98)" fill="#4b5320" font-size="18" font-family="LucidaBright, Lucida Bright"><tspan x="0" y="0">Gardens</tspan></text>
  </g>
</svg>
