<?xml version="1.0" encoding="UTF-8"?><svg id="a" xmlns="http://www.w3.org/2000/svg" viewBox="0 0 59.63 135.94"><defs><style>.b{fill:#4b5329;}.c{fill:#ccc;}</style></defs><path class="b" d="M15.15,102.59c-.19-.18-.41-.34-.58-.55-.3-.36-.6-.73-.85-1.13-2.53-4.07-4.84-8.26-6.27-12.87-1.39-4.49-2.37-9.06-2.78-13.75-.26-2.94-.4-5.89-.52-8.83-.15-3.7,.34-7.33,1.45-10.86,1-3.19,2.07-6.36,3.1-9.54,.82-2.55,2.19-4.76,4-6.72,1.59-1.71,3.27-3.32,5.05-4.84,1.08-.92,2.31-1.63,3.57-2.26,2.27-1.13,4.62-2.05,7.02-2.85,1.9-.64,3.79-1.32,5.52-2.36,1.1-.66,2.01-1.53,2.79-2.53,.25-.32,.44-.73,.55-1.12,.33-1.25-.85-2.35-2.02-1.87-.34,.14-.69,.28-1.03,.42-1.91,.82-3.83,1.63-5.74,2.45-1.76,.76-3.6,1.25-5.47,1.66-.4,.09-.74,.07-1-.26-.27-.33-.2-.68-.02-1.04,.89-1.75,2.09-3.25,3.57-4.53,.73-.63,1.52-1.2,2.28-1.8,.16-.12,.33-.23,.46-.37,.23-.24,.27-.49,.07-.8-.65-1-1.26-2.02-1.91-3.02-.42-.65-.75-.72-1.31-.22-1.36,1.23-2.77,2.42-4.02,3.75-4.23,4.51-8.07,9.36-11.52,14.48C4.74,38.35,1.9,46.26,.65,54.75c-.55,3.71-.8,7.45-.55,11.2,.15,2.23,.39,4.44,.61,6.67,.22,2.27,.46,4.54,.71,6.8,.4,3.63,1.07,7.2,2.1,10.71,1.44,4.9,3.99,9.15,7.36,12.96,3.93,4.44,7.91,8.83,12.21,12.92,1.01,.96,1.99,1.93,2.97,2.91,.24,.24,.49,.5,.66,.8,.25,.42,.03,.74-.45,.71-.12,0-.24-.05-.37-.07-2.55-.52-5.09-1.06-7.65-1.55-.57-.11-1.19-.13-1.77-.05-1.4,.18-2.19,1.39-1.85,2.76,.3,1.17,1.07,1.89,2.24,2.13,.87,.17,1.76,.27,2.65,.37,3.4,.36,6.67,1.26,9.88,2.36,3.75,1.29,7.48,2.62,11.22,3.93,1.19,.42,2.37,.87,3.59,1.21,2.92,.82,5.73,1.92,8.46,3.22,1.26,.6,2.58,1.05,3.97,1.18,.53,.05,1.09-.02,1.62-.11,.28-.05,.56-.21,.79-.39,.88-.68,.75-1.92-.28-2.34-.89-.37-1.81-.68-2.75-.91-4.16-1.06-8.09-2.65-11.81-4.79-1.59-.91-3.21-1.78-4.8-2.69-3.94-2.24-7.3-5.19-10.36-8.51-1.04-1.13-2.19-2.16-3.27-3.25-.73-.74-1.47-1.48-2.16-2.25-2.05-2.3-3.05-4.97-3.07-8.07-.03-3.02-.2-6.05-.42-9.06-.12-1.58-.46-3.13-.73-4.7-.07-.39-.2-.77-.37-1.13-.61-1.31-2.2-1.49-3.1-.36-.45,.56-.67,1.23-.68,1.93-.01,1.36,0,2.73,.06,4.09,.09,2.01,.24,4.01,.35,6.01,.03,.57,.04,1.14-.01,1.71-.04,.48-.19,.95-.28,1.43-.07,.02-.14,.04-.22,.06Z"/><path class="c" d="M37.73,.56c-.62-.03-1.38,.18-2.12,.49-2.92,1.2-5.54,2.87-7.87,4.99-1.2,1.09-1.42,2.5-1.27,4.02,.11,1.08,.52,2.06,1.03,3,.74,1.35,1.65,2.59,2.69,3.73,1.08,1.19,2.42,1.6,3.97,1.24,.67-.15,1.34-.38,1.98-.63,2.17-.86,4.24-1.92,6.15-3.28,.58-.41,1.13-.89,1.64-1.4,.92-.92,1.29-2.04,1.06-3.33-.46-2.65-1.58-5-3.28-7.06-.97-1.17-2.25-1.78-3.98-1.77Z"/><path class="b" d="M50.34,0c-.25,.08-.64,.16-.99,.32-1.61,.75-3.22,1.52-4.82,2.3-.64,.31-.71,.56-.42,1.18,.37,.78,.74,1.57,1.11,2.35,.33,.7,.67,.83,1.36,.48,1.25-.64,2.5-1.31,3.74-1.97,.65-.35,1.16-.84,1.54-1.47,.48-.78,.41-1.86-.15-2.58-.32-.4-.72-.61-1.37-.61Z"/></svg>