<?xml version="1.0" encoding="utf-8"?>
<!-- Generator: Adobe Illustrator 24.3.0, SVG Export Plug-In . SVG Version: 6.00 Build 0)  -->
<svg version="1.1" id="Calque_1" xmlns="http://www.w3.org/2000/svg" xmlns:xlink="http://www.w3.org/1999/xlink" x="0px" y="0px"
	 viewBox="0 0 432 432" style="enable-background:new 0 0 432 432;" xml:space="preserve">
<style type="text/css">
	.st0{fill:#8B9B75;}
	.st1{fill:#CCCCCC;}
	.st2{fill:#74AFC4;}
	.st3{fill:#B7535A;}
	.st4{fill:#5F6852;}
	.st5{fill:#B2C191;}
	.st6{fill:#998675;}
	.st7{fill:#E5AE6C;}
	.st8{fill:#736357;}
	.st9{fill:#E6E6E6;}
	.st10{fill:#999999;}
	.st11{fill:#C69C6D;}
	.st12{fill:#CCE0E5;}
	.st13{fill:#E0CACC;}
	.st14{fill:#EACAA4;}
	.st15{fill:#B3B3B3;}
	.st16{fill:#D69950;}
	.st17{fill:#E5AD6A;}
	.st18{fill:#D3B4B6;}
	.st19{fill:#E8A34F;}
	.st20{fill:#808080;}
	.st21{fill:#534741;}
	.st22{fill:#5D808C;}
	.st23{fill:#F9C132;}
	.st24{fill:#6C755F;}
	.st25{fill:#95AEB7;}
	.st26{fill:#C79C52;}
	.st27{fill:#DD9F54;}
	.st28{fill:#748B91;}
	.st29{fill:#9BC2CC;}
	.st30{fill:#AD868A;}
	.st31{fill:#727C62;}
	.st32{fill:#666666;}
	.st33{fill:#F9A332;}
	.st34{fill:#CCD3BA;}
	.st35{fill:#C7B299;}
	.st36{fill:#4D4D4D;}
	.st37{fill:#333333;}
	.st38{fill:none;}
	.st39{fill:#879193;}
	.st40{fill:#E09F51;}
	.st41{fill:#869372;}
</style>
<g>
	<g>
		<path class="st8" d="M354.67,154.85c0.66-0.14,1.12-0.22,1.56-0.34c1.36-0.37,2.71-0.78,4.08-1.15c0.57-0.15,1.17-0.23,1.75-0.33
			c0.19-0.03,0.4-0.03,0.59-0.03c2.11,0.07,3.18,1.87,2.26,3.78c-0.25,0.52-0.69,0.85-1.19,1.07c-0.84,0.37-1.68,0.73-2.54,1.06
			c-3.33,1.28-6.45,2.96-9.21,5.22c-1.46,1.19-2.84,2.48-4.19,3.79c-1.57,1.52-3.07,3.1-4.59,4.66c-2.06,2.12-4.29,4.05-6.72,5.75
			c-2.44,1.7-4.86,3.42-7.32,5.1c-2.8,1.9-5.75,3.52-8.97,4.6c-2.45,0.82-4.98,1.32-7.53,1.7c-0.17,0.03-0.34,0.05-0.51,0.09
			c-0.07,0.02-0.13,0.06-0.31,0.16c1.1,0.18,2.08,0.35,3.06,0.49c5.76,0.83,11.53,1.66,17.24,2.84c3.13,0.65,6.25,1.36,9.24,2.53
			c0.81,0.31,1.59,0.69,2.37,1.06c0.31,0.15,0.61,0.33,0.91,0.51c1.26,0.78,1.88,1.66,1.06,3.62c-0.58,1.37-1.98,2.55-3.82,2.13
			c-0.41-0.09-0.83-0.15-1.24-0.26c-2.69-0.67-5.31-1.61-7.93-2.5c-3.02-1.03-6.06-2.02-9.09-3.05c-3.89-1.32-7.88-2.15-11.94-2.71
			c-4.12-0.57-8.24-1.17-12.32-2.03c-0.42-0.09-0.89-0.12-1.31-0.03c-3.91,0.8-7.85,1.45-11.81,1.94
			c-5.46,0.68-10.74,2.08-15.92,3.9c-3.51,1.23-7.03,2.42-10.56,3.56c-1.53,0.49-3.1,0.85-4.67,1.2c-2.36,0.52-4.23-2.13-3.91-4.09
			c0.07-0.46,0.3-0.86,0.67-1.13c0.54-0.39,1.09-0.78,1.68-1.08c2.21-1.16,4.58-1.89,6.98-2.51c4.23-1.08,8.52-1.87,12.83-2.54
			c3.97-0.62,7.94-1.21,11.93-1.93c-0.23-0.05-0.47-0.11-0.7-0.15c-3.72-0.55-7.35-1.38-10.77-3c-2.36-1.12-4.58-2.47-6.72-3.97
			c-1.77-1.24-3.49-2.54-5.29-3.73c-2.47-1.64-4.78-3.46-6.87-5.55c-1.04-1.03-2.04-2.1-3.08-3.13c-1.55-1.53-3.1-3.07-4.69-4.57
			c-3.24-3.04-6.98-5.28-11.13-6.87c-0.83-0.32-1.66-0.65-2.47-1.03c-1.34-0.63-1.9-2.03-1.39-3.42c0.27-0.73,0.82-1.15,1.57-1.35
			c0.84-0.22,1.69-0.12,2.5,0.09c1.46,0.37,2.91,0.8,4.37,1.2c0.57,0.15,1.12,0.42,1.73,0.32c0.26-0.34,0.13-0.69,0.03-1.01
			c-0.17-0.54-0.36-1.09-0.61-1.59c-2.01-4.02-3.55-8.24-5.02-12.48c-1.43-4.12-2.91-8.22-4.31-12.35
			c-1.31-3.86-1.65-7.84-1.35-11.89c0.36-4.86,1.03-9.66,2.28-14.37c0.07-0.26,0.13-0.53,0.23-0.78c0.24-0.59,0.59-0.74,1.18-0.53
			c0.16,0.06,0.31,0.15,0.47,0.22c0.78,0.38,1.56,0.77,2.34,1.15c0.7,0.34,0.73,0.4,0.57,1.14c-0.42,1.91-0.87,3.82-1.27,5.73
			c-0.45,2.14-0.77,4.3-0.91,6.48c-0.11,1.74,0.04,3.47,0.22,5.2c0.41,3.92,0.85,7.85,1.97,11.64c0.87,2.94,1.92,5.84,2.94,8.73
			c1.74,4.93,3.75,9.76,5.8,14.58c1.48,3.48,3.34,6.74,5.57,9.81c2.88,3.94,6.34,7.23,10.56,9.68c2.68,1.56,5.37,3.09,8.15,4.47
			c4.4,2.18,8.88,4.19,13.64,5.45c2.68,0.71,5.41,1.24,8.11,1.86c1.67,0.38,3.33,0.79,5,1.16c0.35,0.08,0.74,0.13,1.09,0.05
			c3.87-0.85,7.74-1.71,11.61-2.6c3.39-0.78,6.65-1.98,9.84-3.35c4.74-2.03,9.33-4.38,13.76-7.03c3.9-2.34,7.23-5.31,9.98-8.92
			c2.34-3.07,4.31-6.36,5.84-9.9c3.12-7.24,6.03-14.57,8.49-22.06c1.04-3.17,1.64-6.44,2.07-9.73c0.25-1.89,0.42-3.79,0.62-5.69
			c0.25-2.44,0.04-4.86-0.4-7.26c-0.49-2.68-1.1-5.34-1.67-8c-0.23-1.09-0.25-1.07,0.78-1.56c0.65-0.31,1.29-0.64,1.93-0.96
			c0.22-0.11,0.44-0.23,0.67-0.31c0.53-0.18,0.85-0.04,1.08,0.47c0.1,0.22,0.16,0.47,0.23,0.71c0.96,3.6,1.6,7.26,1.98,10.96
			c0.17,1.65,0.33,3.31,0.41,4.97c0.18,3.88-0.4,7.67-1.68,11.33c-1.52,4.35-3.07,8.69-4.6,13.04c-1.26,3.58-2.6,7.13-4.29,10.53
			c-0.3,0.6-0.54,1.23-0.75,1.86C354.77,153.91,354.76,154.28,354.67,154.85z"/>
		<path class="st1" d="M354.8,101.5c-1,0.02-1.9-0.36-2.65-1.06c-0.38-0.35-0.74-0.74-1.03-1.17c-2.09-3.05-4.1-6.14-5.65-9.51
			c-0.43-0.94-0.72-1.95-0.99-2.95c-0.37-1.37,0-2.6,0.88-3.68c0.25-0.31,0.51-0.61,0.8-0.88c1.94-1.8,4.11-3.27,6.53-4.34
			c0.74-0.33,1.54-0.54,2.33-0.72c1.12-0.26,2.2-0.03,3.1,0.67c0.73,0.58,1.47,1.21,2.01,1.96c2.22,3.08,4.26,6.28,5.88,9.71
			c0.39,0.82,0.63,1.72,0.86,2.6c0.29,1.11-0.01,2.12-0.75,2.98c-0.4,0.47-0.84,0.91-1.31,1.31c-2.19,1.85-4.62,3.32-7.26,4.45
			C356.71,101.24,355.81,101.5,354.8,101.5z"/>
		<path class="st1" d="M242.26,101.6c-0.76-0.2-1.56-0.31-2.28-0.6c-2.99-1.2-5.71-2.86-8.11-5.02c-0.22-0.2-0.43-0.42-0.63-0.64
			c-0.88-0.96-1.21-2.06-0.93-3.36c0.23-1.1,0.65-2.13,1.16-3.13c1.54-3.03,3.36-5.9,5.3-8.69c0.46-0.67,1.04-1.26,1.64-1.82
			c1.26-1.18,2.75-1.54,4.4-1.04c0.76,0.23,1.51,0.49,2.22,0.83c2.11,1.02,4.05,2.31,5.77,3.9c0.54,0.5,1.02,1.08,1.44,1.69
			c0.59,0.85,0.71,1.83,0.53,2.85c-0.24,1.36-0.73,2.62-1.34,3.85c-1.51,3.02-3.32,5.86-5.21,8.65c-0.32,0.47-0.7,0.9-1.11,1.3
			C244.33,101.13,243.39,101.54,242.26,101.6z"/>
		<path class="st8" d="M342.53,68.44c0.33,0.12,0.8,0.21,1.19,0.45c0.5,0.31,0.99,0.67,1.38,1.11c1.78,2.03,3.53,4.08,5.29,6.14
			c0.21,0.24,0.37,0.53,0.52,0.81c0.17,0.31,0.09,0.57-0.21,0.76c-0.81,0.52-1.61,1.07-2.44,1.57c-0.63,0.38-0.94,0.33-1.42-0.24
			c-1.58-1.88-3.15-3.76-4.72-5.65c-0.46-0.55-0.91-1.11-1.36-1.67c-1.09-1.34-0.59-2.79,1.11-3.18
			C342.05,68.51,342.22,68.49,342.53,68.44z"/>
		<path class="st8" d="M254.63,68.46c0.98,0.06,1.66,0.35,2.14,1.04c0.38,0.54,0.39,1.11,0.06,1.68c-0.07,0.13-0.16,0.25-0.25,0.37
			c-2.04,2.46-4.07,4.93-6.12,7.38c-0.61,0.73-0.89,0.76-1.7,0.25c-0.71-0.45-1.42-0.91-2.12-1.37c-0.5-0.33-0.55-0.51-0.25-1.04
			c0.1-0.17,0.21-0.34,0.34-0.49c1.82-2.13,3.63-4.26,5.48-6.36c0.38-0.44,0.9-0.78,1.4-1.08
			C253.95,68.61,254.38,68.54,254.63,68.46z"/>
	</g>
	<g>
		<path class="st8" d="M184.83,167.38c0.19-0.18,0.41-0.34,0.58-0.55c0.3-0.36,0.6-0.73,0.85-1.13c2.53-4.07,4.84-8.26,6.27-12.87
			c1.39-4.49,2.37-9.06,2.78-13.75c0.26-2.94,0.4-5.89,0.52-8.83c0.15-3.7-0.34-7.33-1.45-10.86c-1-3.19-2.07-6.36-3.1-9.54
			c-0.82-2.55-2.19-4.76-4-6.72c-1.59-1.71-3.27-3.32-5.05-4.84c-1.08-0.92-2.31-1.63-3.57-2.26c-2.27-1.13-4.62-2.05-7.02-2.85
			c-1.9-0.64-3.79-1.32-5.52-2.36c-1.1-0.66-2.01-1.53-2.79-2.53c-0.25-0.32-0.44-0.73-0.55-1.12c-0.33-1.25,0.85-2.35,2.02-1.87
			c0.34,0.14,0.69,0.28,1.03,0.42c1.91,0.82,3.83,1.63,5.74,2.45c1.76,0.76,3.6,1.25,5.47,1.66c0.4,0.09,0.74,0.07,1-0.26
			c0.27-0.33,0.2-0.68,0.02-1.04c-0.89-1.75-2.09-3.25-3.57-4.53c-0.73-0.63-1.52-1.2-2.28-1.8c-0.16-0.12-0.33-0.23-0.46-0.37
			c-0.23-0.24-0.27-0.49-0.07-0.8c0.65-1,1.26-2.02,1.91-3.02c0.42-0.65,0.75-0.72,1.31-0.22c1.36,1.23,2.77,2.42,4.02,3.75
			c4.23,4.51,8.07,9.36,11.52,14.48c4.8,7.12,7.64,15.03,8.89,23.52c0.55,3.71,0.8,7.45,0.55,11.2c-0.15,2.23-0.39,4.44-0.61,6.67
			c-0.22,2.27-0.46,4.54-0.71,6.8c-0.4,3.63-1.07,7.2-2.1,10.71c-1.44,4.9-3.99,9.15-7.36,12.96c-3.93,4.44-7.91,8.83-12.21,12.92
			c-1.01,0.96-1.99,1.93-2.97,2.91c-0.24,0.24-0.49,0.5-0.66,0.8c-0.25,0.42-0.03,0.74,0.45,0.71c0.12-0.01,0.24-0.05,0.37-0.07
			c2.55-0.52,5.09-1.06,7.65-1.55c0.57-0.11,1.19-0.13,1.77-0.05c1.4,0.18,2.19,1.39,1.85,2.76c-0.3,1.17-1.07,1.89-2.24,2.13
			c-0.87,0.17-1.76,0.27-2.65,0.37c-3.4,0.36-6.67,1.26-9.88,2.36c-3.75,1.29-7.48,2.62-11.22,3.93c-1.19,0.42-2.37,0.87-3.59,1.21
			c-2.92,0.82-5.73,1.92-8.46,3.22c-1.26,0.6-2.58,1.05-3.97,1.18c-0.53,0.05-1.09-0.02-1.62-0.11c-0.28-0.05-0.56-0.21-0.79-0.39
			c-0.88-0.68-0.75-1.92,0.28-2.34c0.89-0.37,1.81-0.68,2.75-0.91c4.16-1.06,8.09-2.65,11.81-4.79c1.59-0.91,3.21-1.78,4.8-2.69
			c3.94-2.24,7.3-5.19,10.36-8.51c1.04-1.13,2.19-2.16,3.27-3.25c0.73-0.74,1.47-1.48,2.16-2.25c2.05-2.3,3.05-4.97,3.07-8.07
			c0.03-3.02,0.2-6.05,0.42-9.06c0.12-1.58,0.46-3.13,0.73-4.7c0.07-0.39,0.2-0.77,0.37-1.13c0.61-1.31,2.2-1.49,3.1-0.36
			c0.45,0.56,0.67,1.23,0.68,1.93c0.01,1.36,0,2.73-0.06,4.09c-0.09,2.01-0.24,4.01-0.35,6.01c-0.03,0.57-0.04,1.14,0.01,1.71
			c0.04,0.48,0.19,0.95,0.28,1.43C184.68,167.35,184.75,167.36,184.83,167.38z"/>
		<path class="st1" d="M162.25,65.35c0.62-0.03,1.38,0.18,2.12,0.49c2.92,1.2,5.54,2.87,7.87,4.99c1.2,1.09,1.42,2.5,1.27,4.02
			c-0.11,1.08-0.52,2.06-1.03,3c-0.74,1.35-1.65,2.59-2.69,3.73c-1.08,1.19-2.42,1.6-3.97,1.24c-0.67-0.15-1.34-0.38-1.98-0.63
			c-2.17-0.86-4.24-1.92-6.15-3.28c-0.58-0.41-1.13-0.89-1.64-1.4c-0.92-0.92-1.29-2.04-1.06-3.33c0.46-2.65,1.58-5,3.28-7.06
			C159.24,65.96,160.52,65.35,162.25,65.35z"/>
		<path class="st8" d="M149.65,64.8c0.25,0.08,0.64,0.16,0.99,0.32c1.61,0.75,3.22,1.52,4.82,2.3c0.64,0.31,0.71,0.56,0.42,1.18
			c-0.37,0.78-0.74,1.57-1.11,2.35c-0.33,0.7-0.67,0.83-1.36,0.48c-1.25-0.64-2.5-1.31-3.74-1.97c-0.65-0.35-1.16-0.84-1.54-1.47
			c-0.48-0.78-0.41-1.86,0.15-2.58C148.59,65.01,149,64.8,149.65,64.8z"/>
		<path class="st8" d="M80.16,167.6c-0.19-0.18-0.41-0.34-0.58-0.55c-0.3-0.36-0.6-0.73-0.85-1.13c-2.53-4.07-4.84-8.26-6.27-12.87
			c-1.39-4.49-2.37-9.06-2.78-13.75c-0.26-2.94-0.4-5.89-0.52-8.83c-0.15-3.7,0.34-7.33,1.45-10.86c1-3.19,2.07-6.36,3.1-9.54
			c0.82-2.55,2.19-4.76,4-6.72c1.59-1.71,3.27-3.32,5.05-4.84c1.08-0.92,2.31-1.63,3.57-2.26c2.27-1.13,4.62-2.05,7.02-2.85
			c1.9-0.64,3.79-1.32,5.52-2.36c1.1-0.66,2.01-1.53,2.79-2.53c0.25-0.32,0.44-0.73,0.55-1.12c0.33-1.25-0.85-2.35-2.02-1.87
			c-0.34,0.14-0.69,0.28-1.03,0.42c-1.91,0.82-3.83,1.63-5.74,2.45c-1.76,0.76-3.6,1.25-5.47,1.66c-0.4,0.09-0.74,0.07-1-0.26
			c-0.27-0.33-0.2-0.68-0.02-1.04c0.89-1.75,2.09-3.25,3.57-4.53c0.73-0.63,1.52-1.2,2.28-1.8c0.16-0.12,0.33-0.23,0.46-0.37
			c0.23-0.24,0.27-0.49,0.07-0.8c-0.65-1-1.26-2.02-1.91-3.02c-0.42-0.65-0.75-0.72-1.31-0.22c-1.36,1.23-2.77,2.42-4.02,3.75
			c-4.23,4.51-8.07,9.36-11.52,14.48c-4.8,7.12-7.64,15.03-8.89,23.52c-0.55,3.71-0.8,7.45-0.55,11.2c0.15,2.23,0.39,4.44,0.61,6.67
			c0.22,2.27,0.46,4.54,0.71,6.8c0.4,3.63,1.07,7.2,2.1,10.71c1.44,4.9,3.99,9.15,7.36,12.96c3.93,4.44,7.91,8.83,12.21,12.92
			c1.01,0.96,1.99,1.93,2.97,2.91c0.24,0.24,0.49,0.5,0.66,0.8c0.25,0.42,0.03,0.74-0.45,0.71c-0.12-0.01-0.24-0.05-0.37-0.07
			c-2.55-0.52-5.09-1.06-7.65-1.55c-0.57-0.11-1.19-0.13-1.77-0.05c-1.4,0.18-2.19,1.39-1.85,2.76c0.3,1.17,1.07,1.89,2.24,2.13
			c0.87,0.17,1.76,0.27,2.65,0.37c3.4,0.36,6.67,1.26,9.88,2.36c3.75,1.29,7.48,2.62,11.22,3.93c1.19,0.42,2.37,0.87,3.59,1.21
			c2.92,0.82,5.73,1.92,8.46,3.22c1.26,0.6,2.58,1.05,3.97,1.18c0.53,0.05,1.09-0.02,1.62-0.11c0.28-0.05,0.56-0.21,0.79-0.39
			c0.88-0.68,0.75-1.92-0.28-2.34c-0.89-0.37-1.81-0.68-2.75-0.91c-4.16-1.06-8.09-2.65-11.81-4.79c-1.59-0.91-3.21-1.78-4.8-2.69
			c-3.94-2.24-7.3-5.19-10.36-8.51c-1.04-1.13-2.19-2.16-3.27-3.25c-0.73-0.74-1.47-1.48-2.16-2.25c-2.05-2.3-3.05-4.97-3.07-8.07
			c-0.03-3.02-0.2-6.05-0.42-9.06c-0.12-1.58-0.46-3.13-0.73-4.7c-0.07-0.39-0.2-0.77-0.37-1.13c-0.61-1.31-2.2-1.49-3.1-0.36
			c-0.45,0.56-0.67,1.23-0.68,1.93c-0.01,1.36,0,2.73,0.06,4.09c0.09,2.01,0.24,4.01,0.35,6.01c0.03,0.57,0.04,1.14-0.01,1.71
			c-0.04,0.48-0.19,0.95-0.28,1.43C80.31,167.56,80.24,167.58,80.16,167.6z"/>
		<path class="st1" d="M102.74,65.57c-0.62-0.03-1.38,0.18-2.12,0.49c-2.92,1.2-5.54,2.87-7.87,4.99c-1.2,1.09-1.42,2.5-1.27,4.02
			c0.11,1.08,0.52,2.06,1.03,3c0.74,1.35,1.65,2.59,2.69,3.73c1.08,1.19,2.42,1.6,3.97,1.24c0.67-0.15,1.34-0.38,1.98-0.63
			c2.17-0.86,4.24-1.92,6.15-3.28c0.58-0.41,1.13-0.89,1.64-1.4c0.92-0.92,1.29-2.04,1.06-3.33c-0.46-2.65-1.58-5-3.28-7.06
			C105.75,66.17,104.47,65.56,102.74,65.57z"/>
		<path class="st8" d="M115.35,65.01c-0.25,0.08-0.64,0.16-0.99,0.32c-1.61,0.75-3.22,1.52-4.82,2.3c-0.64,0.31-0.71,0.56-0.42,1.18
			c0.37,0.78,0.74,1.57,1.11,2.35c0.33,0.7,0.67,0.83,1.36,0.48c1.25-0.64,2.5-1.31,3.74-1.97c0.65-0.35,1.16-0.84,1.54-1.47
			c0.48-0.78,0.41-1.86-0.15-2.58C116.4,65.22,116,65.01,115.35,65.01z"/>
	</g>
	<g>
		<path class="st8" d="M296.48,326.37c-5.74,8.48-12.55,15.96-20.43,22.47c-0.47,0.39-0.84,0.74-0.91,1.43
			c-0.1,0.95-0.73,1.64-1.52,2.15c-0.89,0.58-1.8,1.13-2.72,1.66c-7.39,4.25-15.28,7.28-23.49,9.51c-7.33,1.99-14.77,3.3-22.37,3.57
			c-2.53,0.09-5.06-0.01-7.59-0.09c-0.63-0.02-1.31-0.21-1.87-0.5c-1.21-0.63-1.77-1.93-1.53-3.24c0.23-1.26,1.21-2.25,2.49-2.5
			c0.36-0.07,0.75-0.09,1.12-0.06c8.12,0.52,16.11-0.46,24-2.27c8.73-2,17.11-4.96,24.97-9.29c1.12-0.62,2.21-1.29,3.31-1.96
			c0.82-0.5,1.68-0.87,2.66-0.69c0.46,0.08,0.71-0.19,0.98-0.43c2.57-2.33,5.21-4.58,7.67-7.02c6.05-6,11.2-12.71,15.33-20.17
			c10.03-18.1,13.48-37.27,9.04-57.65c-0.79-3.61-1.89-7.13-3.22-10.58c-0.12-0.32-0.25-0.64-0.35-0.97
			c-0.14-0.48,0.01-0.86,0.46-1.1c0.52-0.28,1.03-0.6,1.57-0.85c0.61-0.29,0.98-0.13,1.3,0.49c0.13,0.25,0.22,0.52,0.32,0.78
			c6.42,16.68,7.17,33.66,2.61,50.9c-1.67,6.31-4.01,12.36-7.1,18.1C299.69,320.86,298.06,323.6,296.48,326.37z"/>
		<path class="st1" d="M286.96,230.36c0.42-0.46,0.81-0.95,1.26-1.37c1.74-1.6,3.74-2.82,5.91-3.75c1.98-0.85,3.82-0.57,5.36,0.96
			c0.93,0.92,1.81,1.9,2.6,2.94c1.91,2.49,3.5,5.18,4.91,7.97c0.45,0.88,0.79,1.85,0.99,2.81c0.38,1.82-0.16,3.39-1.6,4.63
			c-2.03,1.75-4.27,3.16-6.76,4.14c-2.4,0.94-4.12,0.5-5.75-1.5c-0.93-1.14-1.82-2.32-2.58-3.57c-1.35-2.21-2.6-4.48-3.85-6.76
			c-0.42-0.76-0.73-1.59-1-2.42C285.99,233.01,286.14,231.65,286.96,230.36z"/>
		<path class="st8" d="M284.68,218.34c0.34,0.33,0.85,0.79,1.33,1.28c1.33,1.36,2.65,2.74,3.97,4.12c0.26,0.27,0.5,0.56,0.71,0.87
			c0.41,0.6,0.37,0.82-0.22,1.23c-0.52,0.35-1.04,0.7-1.56,1.03c-0.53,0.33-0.7,0.33-1.14-0.11c-0.53-0.53-1-1.12-1.53-1.65
			c-1.2-1.23-2.42-2.44-3.63-3.66c-0.18-0.18-0.36-0.35-0.52-0.54c-0.66-0.79-0.68-1.77-0.05-2.48
			C282.66,217.73,283.66,217.65,284.68,218.34z"/>
		<path class="st8" d="M123.67,326.37c5.74,8.48,12.55,15.96,20.43,22.47c0.47,0.39,0.84,0.74,0.91,1.43
			c0.1,0.95,0.73,1.64,1.52,2.15c0.89,0.58,1.8,1.13,2.72,1.66c7.39,4.25,15.28,7.28,23.49,9.51c7.33,1.99,14.77,3.3,22.37,3.57
			c2.53,0.09,5.06-0.01,7.59-0.09c0.63-0.02,1.31-0.21,1.87-0.5c1.21-0.63,1.77-1.93,1.53-3.24c-0.23-1.26-1.21-2.25-2.49-2.5
			c-0.36-0.07-0.75-0.09-1.12-0.06c-8.12,0.52-16.11-0.46-24-2.27c-8.73-2-17.11-4.96-24.97-9.29c-1.12-0.62-2.21-1.29-3.31-1.96
			c-0.82-0.5-1.68-0.87-2.66-0.69c-0.46,0.08-0.71-0.19-0.98-0.43c-2.57-2.33-5.21-4.58-7.67-7.02c-6.05-6-11.2-12.71-15.33-20.17
			c-10.03-18.1-13.48-37.27-9.04-57.65c0.79-3.61,1.89-7.13,3.22-10.58c0.12-0.32,0.25-0.64,0.35-0.97c0.14-0.48-0.01-0.86-0.46-1.1
			c-0.52-0.28-1.03-0.6-1.57-0.85c-0.61-0.29-0.98-0.13-1.3,0.49c-0.13,0.25-0.22,0.52-0.32,0.78c-6.42,16.68-7.17,33.66-2.61,50.9
			c1.67,6.31,4.01,12.36,7.1,18.1C120.46,320.86,122.09,323.6,123.67,326.37z"/>
		<path class="st1" d="M133.19,230.36c-0.42-0.46-0.81-0.95-1.26-1.37c-1.74-1.6-3.74-2.82-5.9-3.75c-1.98-0.85-3.82-0.57-5.36,0.96
			c-0.93,0.92-1.81,1.9-2.6,2.94c-1.91,2.49-3.5,5.18-4.91,7.97c-0.45,0.88-0.79,1.85-0.99,2.81c-0.38,1.82,0.16,3.39,1.6,4.63
			c2.03,1.75,4.27,3.16,6.76,4.14c2.4,0.94,4.12,0.5,5.75-1.5c0.93-1.14,1.82-2.32,2.58-3.57c1.35-2.21,2.6-4.48,3.85-6.76
			c0.42-0.76,0.73-1.59,1-2.42C134.16,233.01,134.01,231.65,133.19,230.36z"/>
		<path class="st8" d="M135.47,218.34c-0.34,0.33-0.85,0.79-1.33,1.28c-1.33,1.36-2.65,2.74-3.97,4.12
			c-0.26,0.27-0.5,0.56-0.71,0.87c-0.41,0.6-0.37,0.82,0.22,1.23c0.52,0.35,1.04,0.7,1.56,1.03c0.53,0.33,0.7,0.33,1.14-0.11
			c0.53-0.53,1-1.12,1.53-1.65c1.2-1.23,2.42-2.44,3.63-3.66c0.18-0.18,0.36-0.35,0.52-0.54c0.66-0.79,0.68-1.77,0.05-2.48
			C137.49,217.73,136.5,217.65,135.47,218.34z"/>
	</g>
</g>
</svg>
