<?xml version="1.0" encoding="utf-8"?>
<!-- Generator: Adobe Illustrator 26.2.1, SVG Export Plug-In . SVG Version: 6.00 Build 0)  -->
<svg version="1.1" id="Layer_1" xmlns="http://www.w3.org/2000/svg" xmlns:xlink="http://www.w3.org/1999/xlink" x="0px" y="0px"
	 viewBox="0 0 310.5 316.4" style="enable-background:new 0 0 310.5 316.4;" xml:space="preserve">
<style type="text/css">
	.st0{fill:#A5A990;}
</style>
<path id="Path_131" class="st0" d="M158.1,210.4c13.3,0,13.8-14,13.8-14c0.2-2.9,0-5.7-0.5-8.6c-0.3-0.9-0.7-1.8-1.1-2.7
	c0,3.1-0.8,6.1-0.8,7.5c0.1,3.8-0.7,7.6-2.3,11.1c-2,3.4-5.2,5.3-8.6,4.8c-2-0.3-3.8-1.5-4.8-3.3c-1.2-2-1.7-4.3-1.4-6.6
	c1.1,4.2,4.3,6.9,7.8,6.8c8.3,0,8-14.1,3.9-19.9s-15.1-5.2-15.6,4.1c-1.1-13,17.2-15.4,19.2-3.1c1.1-1,0.8-3.4,0.5-5.1
	c-2.9-3.8-7-5.7-11.2-5.1c-2.8-0.3-5.6,0.8-7.4,2.9c-2.1,2.4-3.4,5.5-3.5,8.7c-0.1,0.8-0.1,1.6,0,2.4l-0.2,2.4
	C146.4,192,144.6,210.4,158.1,210.4z M103,214.9c-0.9-1.2-1.3-2.7-1.1-4.1l1.6-12c0.2-0.8,0.2-1.6,0-2.4c-0.4-1.6-0.6-3.2-0.5-4.8
	c0.1-2.6,0.8-5.2,2-7.5c2.1-3.8,2.4-2.7,2.4-2.7c0.3,1.6,0.5,3.2,0.5,4.8l0.5,9.6c2.6,1.3,5.6,1.5,8.4,0.7c1-0.3,1.6-1.1,1.3-1.4
	c-0.4-1-0.7-2-0.8-3.1l-1.3-12.4c13.3-23.7,28.3-24.3,28.3-24.3c1.1-0.2,1.9-1.2,1.8-2.3v-52.8c0.9,0.9,1.4,2.1,1.6,3.4l1.6,51.1
	c7,0,22.9,8.9,22.9,8.9c-6.3-3.4-13.5-4.7-20.5-3.8c-1,0.3-1.8,1-1.8,1.7s-0.5,1-1,1.3c-0.3-0.1-0.6-0.3-0.8-0.6
	c-0.2-0.3-0.3-0.7-0.2-1.1c-7.8,1.4-6.5,4.8-6.5,4.8c0.5,1.3,0.5,2.4,0,2.7c-0.7,0.5-1.5,0.7-2.4,0.7l-6,0.3
	c-1.2,0.2-2.3,0.9-2.8,2.1c-0.5,1.1-0.3,1.7,0.8,1.7l12.8-0.9c11.4-12.6,25.5-1.7,25.5-1.7c0.8,0.7,0.8,0.7,0,0.3
	c-6.2-3.7-13.8-4.1-20.3-0.9c-5.4,2.9-9.3,8.9-10.4,16.1c0,1.4-0.5,2.4-1,2.4h-2.6c-0.2,1.4,0.5,2.1,1.6,2.1h0.8
	c1.2-0.4,2.1-1.5,2.3-2.7c2-10.3,9.3-17.5,17.8-17.5c8.5-1,16.4,5.6,19,15.8c1.8,4.1,3.4,5.8,5.2,6.2c1.2,0.2,2.3,0.6,3.4,1.1
	c1.1,0.7,2.1,1.5,3.1,2.4c1.3,1,2.8,1.7,4.4,2.1c2.7,0.5,5.4,0.7,8,0.7c1.6,0,0,2.4,0,2.4c-1.1-0.1-2.2,0.1-3.1,0.7l0.3,1.7
	c0.3,0.3,0.5,0.6,0.5,1.1c0,0-0.5,0.3-1.1,2.7l-0.3,2.4c0.3,0.7-0.5,1.4-1.6,1.4h-3.6c-1,0.6-2.3,0.4-3.1-0.3l-4-3.8
	c-0.8-0.6-1.7-1.2-2.6-1.7c-0.5,0-1.3-1-1.6-2c-0.1-0.9-0.9-1.6-1.8-1.7c-0.8,0-1.3-1.1-1.6-2.4l-0.3-2.1c-0.3-1.4-0.8-2.4-1.3-2.4
	s-0.8,1-0.8,2.4c0,0,1.1,17.1-15.8,17.1s-14.1-26.1-14.1-26.1c-1.8,0.3-2.1,1.3-2.1,1.3c-0.3,1.6-0.5,3.2-0.5,4.8v0.6
	c-1.2,0-2.3,0.6-2.8,1.7c-0.7,1.2-1.1,2.7-1,4.1l0.8,12.4c0,1.4-0.8,2.4-1.6,2.1c-0.8-0.2-1.6,0.1-2.1,0.7c-0.6,0.7-1.4,1.2-2.3,1.4
	c-0.4,0.1-0.8,0-1.1-0.2c-0.4-0.3-0.6-0.7-0.7-1.2c0-0.2,0-0.4,0-0.7v-3.5c0-1.4-0.8-2.1-1.6-1.4l-10.4,7c-0.2,0.3-0.6,0.4-1,0.4
	c-0.4-0.1-0.7-0.3-0.9-0.6c-0.1-0.2-0.2-0.5-0.3-0.7l-1.3-6.5c-0.1-0.6-0.4-1.1-0.8-1.5c-0.4-0.3-0.9-0.4-1.4-0.3l0,0l-0.8,0.3
	c-1.1,0.4-1.9,1.5-1.8,2.7l0.2,18.5c-1,0-2,0.2-2.8,0.7c-1,0.7-1.6,0-1.6-1.4l0.3-7.9c0-1.5-0.5-2.9-1.3-4.1L103,214.9z
	 M176.8,313.9l-0.5-22.3c0-1.6-0.1-3.2-0.3-4.8c0,0-0.7-15.8-5.1-15.8c-1.2-0.2-2.3,0.3-3.1,1.2c-0.9,1-1.4,2.3-1.4,3.6v4.8
	c0,0,0,19.5-0.3,33.4c3.6,0.3,7.3,0.3,10.9,0L176.8,313.9z M152.9,314.3v-6.5c0,0,1.1-37.7-4.9-37.7c-5.2,0-5.7,27.8-6,43.5
	C145.6,314.2,149.3,314.5,152.9,314.3L152.9,314.3z M120.9,312.9c3.5,0.4,6.9,0.6,10.4,0.7c-1-21.9-2.4-32.2-3.4-35.3
	c-1.3-4.1-2.4,0.7-2.4,0.7H124c0,0-1.8-2.4-2.1-2.1c-0.5,1-0.8,2-0.8,3.1L120.9,312.9z M290.7,280.7c0,11.1-21.8,21.6-55.1,27.8
	c27.3-6.2,44.7-15.4,44.7-25.4c0-13.7-32-25.7-78-30.8c-0.3,0.3-0.5,1.1-0.8,1.4c-0.8,2.3-1.2,4.7-1.1,7.2c0,1.4,0.3,3.5,0.3,4.8
	c0,0,0,6.5-0.3,8.9c-0.2,3-0.1,6,0.3,8.9c0.2,1.5-0.2,2.9-1,4.1c-0.8,0.7-1.3,2.7-1.8,3.8L195,303c-0.3,1.4-0.5,1.4-0.5,0l-0.8-17.1
	c0-1.3-0.3-3.4-0.3-4.8c0,0-0.3-6.8-2.6-6.2s-2.4,5.6-2.4,5.6c0,1.3-0.5,2.1-1,1.7s-1.3,0-1.8,1.3l-0.5,0.7
	c-0.5,1.4-0.8,2.9-0.8,4.5c0,0,0,12.4,0.3,25.1c18.7-1.1,35.9-2.7,51-5.6c-28.1,5.8-56.8,8.5-85.5,8.2c-72,0-130.3-15.1-130.3-33.9
	c0-11.1,21.6-21.6,54.9-27.4c-27.6,6.2-44.7,15.4-44.7,25.7c0,13.4,30.2,25,73.8,30.5c0.3-14.8,0.8-29.8,0.8-29.8
	c0-1.4-2.4-4.8-2.4-5.6c0.2-1.4,0.4-2.7,0.8-4.1l1.8-8.6c0.2-1.4,0-2.8-0.5-4.1l-3.4-5.6c-0.4-0.5-0.8-1.1-1-1.7
	c-8.9,1.1-17.4,2.1-24.9,3.8c7.5-1.7,15.6-3.1,24.4-4.5l-0.8-1l-1.3-1.4c-0.9-1.2-1.3-2.6-1.3-4.1c0,0,0.3-17.1,49.1-17.1
	c55.1,0,58.8,10.6,60.6,12.4c1.1,1.3,1.4,3.2,0.8,4.8c-0.5,1.4-1.1,2.4-1.6,2.4s-0.8,0.7-1,1.7c50.5,4.8,86.8,17.5,86.8,32.2
	L290.7,280.7z M151.3,6.8c-0.9,1.3-1.3,2.8-1.3,4.3l0.3,33.4c-0.1,1.4-0.6,2.7-1.6,3.8c-2,1.9-3.7,4.1-5,6.5
	c-1.6,3.4-2.3,3.7-2.3,3.7c-1.2,0.6-2.1,1.8-2.4,3.1l-1.3,5.1c0.3,5.1-1,10.1-3.6,14.4c-2.8,4.7-7,7.9-11.7,8.9
	c-2.9-1.1-5.3-3.3-6.5-6.2c0,0,4.9-1.4,7.3-14.4c2.2-9.1,6-17.8,11.2-25.7c0.9-1.2,1.7-2.5,2.4-3.8c0,0,10.6-19.9,11.9-31.2
	c-1.3-1.4-2.1-3.2-2.4-5.2c-0.2-1.7,0.8-3.2,2.4-3.7l0,0c0.8,0,3.4,1.1,3.4,3.5C152.1,4.6,151.8,5.8,151.3,6.8z"/>
</svg>
