<svg id="top" xmlns="http://www.w3.org/2000/svg" width="151.1" height="209.037" viewBox="0 0 151.1 209.037">
  <path id="Path_131" data-name="Path 131" d="M77.149,117.362c7.44,0,7.688-7.824,7.688-7.824a20.465,20.465,0,0,0-.273-4.781,12.931,12.931,0,0,0-.6-1.521c0,1.708-.446,3.415-.446,4.191a13.986,13.986,0,0,1-1.29,6.21,4.828,4.828,0,0,1-4.786,2.67,3.8,3.8,0,0,1-2.668-1.846,5.833,5.833,0,0,1-.8-3.681c.633,2.315,2.385,3.857,4.34,3.819,4.637,0,4.489-7.855,2.182-11.084s-8.407-2.887-8.7,2.3c-.6-7.265,9.572-8.6,10.713-1.739.6-.559.446-1.894.3-2.856a6.672,6.672,0,0,0-6.225-2.856A4.883,4.883,0,0,0,72.449,100a7.72,7.72,0,0,0-1.946,4.847,8.078,8.078,0,0,0,0,1.335l-.124,1.335C70.627,107.054,69.611,117.362,77.149,117.362Zm-30.726,2.484a3.153,3.153,0,0,1-.6-2.3l.868-6.675a3.05,3.05,0,0,0,0-1.335,8.913,8.913,0,0,1-.273-2.7,9.076,9.076,0,0,1,1.141-4.191c1.166-2.111,1.314-1.521,1.314-1.521a15.91,15.91,0,0,1,.3,2.67l.273,5.34a6.561,6.561,0,0,0,4.662.4c.57-.186.868-.59.719-.776a6.544,6.544,0,0,1-.446-1.708l-.719-6.893c7.39-13.226,15.772-13.568,15.772-13.568a1.2,1.2,0,0,0,1.017-1.273V55.887a3.348,3.348,0,0,1,.868,1.894l.868,28.5c3.918,0,12.747,4.968,12.747,4.968a18.792,18.792,0,0,0-11.457-2.111c-.57.186-1.017.559-1.017.962s-.273.559-.57.745a.661.661,0,0,1-.447-.331,1,1,0,0,1-.123-.631c-4.365.776-3.621,2.7-3.621,2.7.273.745.273,1.335,0,1.521a2.082,2.082,0,0,1-1.314.373l-3.323.186a2.048,2.048,0,0,0-1.587,1.149c-.3.59-.149.962.422.962l7.142-.528c6.373-7.048,14.21-.931,14.21-.931.446.373.446.373,0,.186a11.978,11.978,0,0,0-11.333-.528,12.209,12.209,0,0,0-5.8,8.973c0,.776-.3,1.335-.57,1.335H64.08c-.124.776.3,1.149.868,1.149h.446a2,2,0,0,0,1.29-1.521c1.1-5.735,5.208-9.769,9.92-9.749,4.744-.568,9.159,3.1,10.589,8.787,1.017,2.3,1.885,3.26,2.877,3.446a8.591,8.591,0,0,1,1.91.59,17.984,17.984,0,0,1,1.736,1.335,5.925,5.925,0,0,0,2.48,1.149,21.889,21.889,0,0,0,4.489.373c.868,0,0,1.335,0,1.335a2.864,2.864,0,0,0-1.736.373l.149.962a.815.815,0,0,1,.3.59s-.3.186-.6,1.521l-.149,1.335c.149.373-.273.776-.868.776H95.749a1.5,1.5,0,0,1-1.736-.186l-2.257-2.111a15.626,15.626,0,0,0-1.463-.962c-.273,0-.719-.559-.868-1.118a1.133,1.133,0,0,0-1.017-.962c-.422,0-.719-.59-.868-1.335l-.149-1.149c-.149-.776-.422-1.335-.719-1.335s-.446.559-.446,1.335c0,0,.6,9.563-8.828,9.563s-7.836-14.531-7.836-14.531c-1.017.155-1.166.745-1.166.745a15.91,15.91,0,0,0-.3,2.67v.31a1.813,1.813,0,0,0-1.587.931,4.067,4.067,0,0,0-.57,2.3l.422,6.893c0,.776-.422,1.335-.868,1.149a1.234,1.234,0,0,0-1.166.373,2.662,2.662,0,0,1-1.29.776.681.681,0,0,1-.626-.127,1.05,1.05,0,0,1-.366-.649,1.9,1.9,0,0,1,0-.373v-1.956c0-.776-.446-1.149-.868-.776L55.4,121.088a.6.6,0,0,1-.536.2.687.687,0,0,1-.481-.358,1.335,1.335,0,0,1-.149-.4l-.719-3.633a1.339,1.339,0,0,0-.465-.831.867.867,0,0,0-.8-.162h0l-.422.186a1.53,1.53,0,0,0-1.017,1.521l.124,10.308a3.212,3.212,0,0,0-1.587.4c-.57.373-.868,0-.868-.776l.149-4.378a4.165,4.165,0,0,0-.744-2.3ZM87.59,175.08l-.273-12.419a23.682,23.682,0,0,0-.149-2.67S86.8,151.2,84.316,151.2a1.923,1.923,0,0,0-1.713.647,3.081,3.081,0,0,0-.767,2.023v2.67s0,10.9-.149,18.629a33.363,33.363,0,0,0,6.1,0Zm-13.342.217v-3.633s.6-21.02-2.753-21.02c-2.9,0-3.2,15.524-3.323,24.249a30.647,30.647,0,0,0,6.076.4Zm-17.83-.776a57.687,57.687,0,0,0,5.8.373c-.57-12.233-1.314-17.977-1.885-19.684-.719-2.3-1.314.373-1.314.373h-.868s-1.017-1.335-1.166-1.149a3.629,3.629,0,0,0-.422,1.739ZM151.1,156.544c0,6.21-12.176,12.047-30.726,15.524,15.227-3.446,24.948-8.6,24.948-14.158,0-7.638-17.855-14.313-43.522-17.2-.149.186-.273.59-.422.776a9.906,9.906,0,0,0-.6,4.005c0,.776.149,1.925.149,2.67,0,0,0,3.633-.149,4.968a23.735,23.735,0,0,0,.149,4.968,3.279,3.279,0,0,1-.57,2.3c-.446.373-.719,1.521-1.017,2.111l-1.587,6.489c-.149.776-.3.776-.3,0l-.446-9.563c0-.745-.149-1.894-.149-2.67,0,0-.149-3.819-1.438-3.446s-1.314,3.1-1.314,3.1c0,.745-.273,1.149-.57.963s-.719,0-1.017.745l-.3.373a7.049,7.049,0,0,0-.446,2.484s0,6.893.149,13.972a225.085,225.085,0,0,0,28.42-3.1,224.424,224.424,0,0,1-47.688,4.564C32.487,176.415,0,168,0,157.507,0,151.3,12.027,145.46,30.6,142.2c-15.375,3.446-24.948,8.6-24.948,14.344,0,7.452,16.814,13.941,41.166,17.014.149-8.228.446-16.642.446-16.642,0-.776-1.314-2.67-1.314-3.1a16.3,16.3,0,0,1,.446-2.267l1.017-4.781a3.978,3.978,0,0,0-.3-2.3l-1.885-3.1a3.758,3.758,0,0,1-.57-.962,136.352,136.352,0,0,0-13.912,2.111c4.191-.962,8.7-1.708,13.615-2.484l-.422-.559-.719-.776a3.8,3.8,0,0,1-.744-2.3s.149-9.563,27.4-9.563c30.751,0,32.784,5.93,33.8,6.893a2.756,2.756,0,0,1,.446,2.67c-.3.776-.6,1.335-.893,1.335s-.422.373-.57.962c28.147,2.67,48.432,9.749,48.432,17.977ZM73.38,3.819a4.165,4.165,0,0,0-.719,2.391l.149,18.629a3.417,3.417,0,0,1-.868,2.111,13.491,13.491,0,0,0-2.777,3.633c-.868,1.894-1.29,2.08-1.29,2.08A2.478,2.478,0,0,0,66.56,34.4l-.719,2.856A14.044,14.044,0,0,1,63.808,45.3a10.206,10.206,0,0,1-6.522,4.968,6.186,6.186,0,0,1-3.621-3.446s2.753-.776,4.067-8.041a46.117,46.117,0,0,1,6.225-14.313,18.357,18.357,0,0,0,1.314-2.111S71.2,11.27,71.917,4.968A5.1,5.1,0,0,1,70.6,2.08,1.911,1.911,0,0,1,71.917,0h0A2.139,2.139,0,0,1,73.8,1.925,4.456,4.456,0,0,1,73.38,3.819Z" transform="translate(0 0)" fill="#4b5320"/>
  <text id="Kitchener" transform="translate(28.55 205.037)" fill="#4b5320" font-size="18" font-family="LucidaBright-Demi, Lucida Bright" font-weight="300"><tspan x="0" y="0">Kitchener</tspan></text>
</svg>
