<svg xmlns="http://www.w3.org/2000/svg" width="81" height="100.369" viewBox="0 0 81 100.369">
  <g id="parks" transform="translate(0 0)">
    <g id="Layer_1" transform="translate(0 0)">
      <rect id="Rectangle_12" data-name="Rectangle 12" width="81" height="67.894" transform="translate(0 0)" fill="none"/>
      <g id="Group_12" data-name="Group 12" transform="translate(2.086 16.088)">
        <path id="Path_58" data-name="Path 58" d="M77.066,55.44a14.479,14.479,0,0,1-3.624-.062l-.061-.007V27.239h.9a1.283,1.283,0,0,0,1.243-.78l1.926-5.608h.122a1.2,1.2,0,0,0,1.293-1.076A1.2,1.2,0,0,0,77.573,18.7h-.405l-1.809-2.258a1.381,1.381,0,0,0-1.077-.48H69.9a1.381,1.381,0,0,0-1.077.48L67.008,18.7H66.6a1.2,1.2,0,0,0-1.293,1.076A1.2,1.2,0,0,0,66.6,20.851h.122l1.928,5.608a1.285,1.285,0,0,0,1.243.78h.9V55.074c-.809-.071-14.344-.129-15.482-.163V47.154a1.2,1.2,0,0,0-1.293-1.076H50.488v0H46.873v0H31.189v-1.5h16.06v.737h2.586V38.025a1.315,1.315,0,0,0-2.586,0v.75H31.189v-.75a1.315,1.315,0,0,0-2.586,0V55.891c-.221,0-.453.009-.671.011h-.218c-4.3,0-8.5-.261-11.38-.454-1.176-.079-2.164-.144-2.95-.178V36.911c3.281-.309,4.79-1.754,5.417-2.659a4.451,4.451,0,0,0,.39-4.406,7.08,7.08,0,0,0,2.971-5.808A8.248,8.248,0,0,0,19.194,18a6.581,6.581,0,0,0,.77-3.087c0-3.031-3.439-6.552-7.874-6.552-2.66,0-7.874,1.979-7.874,6.552a9.407,9.407,0,0,0,.43,2.866A5.85,5.85,0,0,0,.926,23.125a6.138,6.138,0,0,0,2.653,5.439,7.332,7.332,0,0,0-.459,2.285c.007,1.874,1.054,5.045,7.678,5.984V55.2l-8.576-.21-.074,2.152,10.63.261c.809.021,1.95.1,3.345.189,2.93.195,7.182.461,11.585.461h.227c4.678-.009,9.842-.311,14.4-.579,2.171-.127,4.25-.249,6.151-.334,7.027-.307,22.574.092,24.542.36a14.326,14.326,0,0,0,3.939.154ZM5.7,30.841a4.214,4.214,0,0,1,.209-1.278,11.232,11.232,0,0,0,1.626.3c.054,0,.108.007.162.007a1.235,1.235,0,0,0,1.282-.943,1.136,1.136,0,0,0-1.122-1.2c-2.928-.3-4.351-1.809-4.351-4.6a3.6,3.6,0,0,1,2.1-3.334,6.2,6.2,0,0,0,1.232,1.4,1.436,1.436,0,0,0,.854.272,1.417,1.417,0,0,0,.953-.35.958.958,0,0,0-.07-1.516A5.944,5.944,0,0,1,6.8,14.906c0-3.317,3.932-4.4,5.288-4.4,2.847,0,5.288,2.42,5.288,4.4a4.972,4.972,0,0,1-1.763,3.762.955.955,0,0,0-.1,1.52,1.483,1.483,0,0,0,1.827.082,5.353,5.353,0,0,0,.419-.365,6.075,6.075,0,0,1,1.813,4.127,5.079,5.079,0,0,1-2.631,4.537,1.145,1.145,0,0,0-.619.662.921.921,0,0,0,.133.825,2.718,2.718,0,0,1,.1,3.124,4.4,4.4,0,0,1-3.171,1.554V30.8l4.1-4.269-2.02-1.344-2.086,2.168V14H10.791v2.879l-1.083-.9L7.879,17.5l2.912,2.423v5.171L7.514,22.362,5.685,23.884l5.106,4.249v6.513C7.421,34.094,5.707,32.82,5.7,30.841ZM52.727,48.232v1.5H38.862v-1.5Zm-16.45,0v1.5H31.184v-1.5Zm10.968-7.3v1.5H31.184v-1.5ZM31.184,51.882h5.092v3.769c-1.7.084-3.408.156-5.092.2Zm16.06.748v2.42q-2.422.121-5.094.281c-1.065.062-2.169.127-3.286.189V51.884H52.729v3c-.869,0-1.847.026-2.9.06V52.63ZM73.382,24.868V20.851H74.76Zm-2.795-6.755h3l.468.587H70.116Zm-1.171,2.738H70.8v4.016Z" transform="translate(-0.926 -8.358)" fill="#4b5320"/>
      </g>
      <g id="Group_13" data-name="Group 13" transform="translate(37.751 7.404)">
        <path id="Path_59" data-name="Path 59" d="M41.534,5.832H18.028a1.174,1.174,0,0,1-1.266-1.053,1.175,1.175,0,0,1,1.266-1.053H41.534A1.174,1.174,0,0,1,42.8,4.778,1.175,1.175,0,0,1,41.534,5.832Z" transform="translate(-16.762 -3.725)" fill="#4b5320"/>
      </g>
      <g id="Group_14" data-name="Group 14" transform="translate(37.751 11.07)">
        <path id="Path_60" data-name="Path 60" d="M29.667,7.788H18.028a1.174,1.174,0,0,1-1.266-1.053,1.175,1.175,0,0,1,1.266-1.053H29.667a1.174,1.174,0,0,1,1.266,1.053A1.174,1.174,0,0,1,29.667,7.788Z" transform="translate(-16.762 -5.681)" fill="#4b5320"/>
      </g>
      <g id="Group_15" data-name="Group 15" transform="translate(37.754 19.722)">
        <path id="Path_61" data-name="Path 61" d="M33.848,12.4H18.029a1.174,1.174,0,0,1-1.266-1.053A1.175,1.175,0,0,1,18.029,10.3H33.848a1.174,1.174,0,0,1,1.266,1.053A1.175,1.175,0,0,1,33.848,12.4Z" transform="translate(-16.763 -10.297)" fill="#4b5320"/>
      </g>
      <g id="Group_16" data-name="Group 16" transform="translate(37.751 23.389)">
        <path id="Path_62" data-name="Path 62" d="M41.987,14.361H18.028a1.174,1.174,0,0,1-1.266-1.053,1.175,1.175,0,0,1,1.266-1.053H41.987a1.174,1.174,0,0,1,1.266,1.053A1.175,1.175,0,0,1,41.987,14.361Z" transform="translate(-16.762 -12.254)" fill="#4b5320"/>
      </g>
      <g id="Group_17" data-name="Group 17" transform="translate(37.751 32.043)">
        <path id="Path_63" data-name="Path 63" d="M37.352,18.978H18.028a1.174,1.174,0,0,1-1.266-1.053,1.175,1.175,0,0,1,1.266-1.053H37.352a1.174,1.174,0,0,1,1.266,1.053A1.174,1.174,0,0,1,37.352,18.978Z" transform="translate(-16.762 -16.871)" fill="#4b5320"/>
      </g>
      <g id="Group_18" data-name="Group 18" transform="translate(37.751 35.709)">
        <path id="Path_64" data-name="Path 64" d="M41.084,20.934H18.028a1.174,1.174,0,0,1-1.266-1.053,1.175,1.175,0,0,1,1.266-1.053H41.081a1.174,1.174,0,0,1,1.266,1.053A1.173,1.173,0,0,1,41.084,20.934Z" transform="translate(-16.762 -18.827)" fill="#4b5320"/>
      </g>
      <g id="Group_19" data-name="Group 19" transform="translate(26.369 4.297)">
        <path id="Path_65" data-name="Path 65" d="M16.278,12.546a1.348,1.348,0,0,1-1.052-.469c-.824-1.025-3.518-4.5-3.518-6.207,0-2.1,2.05-3.8,4.57-3.8s4.57,1.706,4.57,3.8c0,1.706-2.694,5.182-3.518,6.207A1.351,1.351,0,0,1,16.278,12.546Zm0-8.368a1.89,1.89,0,0,0-2.036,1.694,11.423,11.423,0,0,0,2.036,3.649,11.358,11.358,0,0,0,2.036-3.649A1.891,1.891,0,0,0,16.278,4.177Z" transform="translate(-11.708 -2.067)" fill="#4b5320"/>
      </g>
      <g id="Group_20" data-name="Group 20" transform="translate(26.369 17.066)">
        <path id="Path_66" data-name="Path 66" d="M16.278,19.359a1.348,1.348,0,0,1-1.052-.469c-.824-1.025-3.518-4.5-3.518-6.207,0-2.1,2.05-3.8,4.57-3.8s4.57,1.706,4.57,3.8c0,1.706-2.694,5.182-3.518,6.207A1.351,1.351,0,0,1,16.278,19.359Zm0-8.37a1.891,1.891,0,0,0-2.036,1.694,11.423,11.423,0,0,0,2.036,3.649,11.357,11.357,0,0,0,2.036-3.649A1.892,1.892,0,0,0,16.278,10.988Z" transform="translate(-11.708 -8.88)" fill="#4b5320"/>
      </g>
      <g id="Group_21" data-name="Group 21" transform="translate(26.369 29.835)">
        <path id="Path_67" data-name="Path 67" d="M16.278,26.17a1.352,1.352,0,0,1-1.052-.467c-.824-1.025-3.518-4.5-3.518-6.207,0-2.1,2.05-3.8,4.57-3.8s4.57,1.706,4.57,3.8c0,1.706-2.694,5.184-3.518,6.207A1.356,1.356,0,0,1,16.278,26.17Zm0-8.37a1.891,1.891,0,0,0-2.036,1.694,11.423,11.423,0,0,0,2.036,3.649,11.4,11.4,0,0,0,2.036-3.649A1.892,1.892,0,0,0,16.278,17.8Z" transform="translate(-11.708 -15.693)" fill="#4b5320"/>
      </g>
    </g>
    <text id="Parks-2" data-name="Parks" transform="translate(13 96.369)" fill="#4b5320" font-size="18" font-family="LucidaBright, Lucida Bright"><tspan x="0" y="0">Parks</tspan></text>
  </g>
</svg>
