<svg id="trails" xmlns="http://www.w3.org/2000/svg" width="77.457" height="109.932" viewBox="0 0 77.457 109.932">
  <g id="HuronNaturalArea">
    <g id="Group_11" data-name="Group 11" transform="translate(0.607 0.704)">
      <path id="Path_42" data-name="Path 42" d="M25.241,41.706c2.9-2.579,5.9-5.245,11.856-5.245H67.917A1.281,1.281,0,0,0,69.2,35.182,1.3,1.3,0,0,0,67.917,33.9h-4.9a23.96,23.96,0,0,1,2.167-5.809,1.272,1.272,0,0,0-.5-1.734,1.259,1.259,0,0,0-1.734.5A25.579,25.579,0,0,0,60.44,33.9H59.226l2.406-11.574a3.821,3.821,0,0,0,3.511-2.623l1.279-3.858a3.865,3.865,0,0,0-1.539-4.422L65.295,9.8A1.285,1.285,0,0,0,62.8,9.173l-.39,1.626a3.874,3.874,0,0,0-3.294,2.623l-1.279,3.858a3.83,3.83,0,0,0,1.344,4.27L56.6,33.9h-.282A38.366,38.366,0,0,0,53.7,23.131a1.278,1.278,0,1,0-2.362.975,37.432,37.432,0,0,1,2.428,9.775H52.247L49.516,22.958a3.855,3.855,0,0,0,1.539-4.422l-1.279-3.858a3.853,3.853,0,0,0-1.929-2.232,3.8,3.8,0,0,0-1.365-.39l-.39-1.582A1.285,1.285,0,1,0,43.6,11.1l.39,1.6a3.825,3.825,0,0,0-1.517,4.4l1.279,3.858a3.813,3.813,0,0,0,3.273,2.579L49.6,33.882H46.221c.238-2.037.91-4.963,1.192-6.155a1.285,1.285,0,0,0-2.493-.629c-.022.108-.325,1.322-.629,2.839a33.218,33.218,0,0,0-2.146-6.892,1.29,1.29,0,0,0-2.341,1.084,31.9,31.9,0,0,1,2.406,9.732H37.118c-6.936,0-10.6,3.273-13.568,5.9a23.583,23.583,0,0,1-3.013,2.406,18.965,18.965,0,0,1-5.852,2.189c-2.731.694-5.549,1.387-8.041,4.053a1.282,1.282,0,0,0,.022,1.842,1.285,1.285,0,0,0,1.821-.065c1.972-2.1,4.226-2.666,6.806-3.316a21.848,21.848,0,0,0,6.589-2.493A25.148,25.148,0,0,0,25.241,41.706ZM60.288,18.081l1.279-3.858a1.282,1.282,0,0,1,1.235-.867,1.473,1.473,0,0,1,.412.065,1.3,1.3,0,0,1,.824,1.626L62.759,18.9a1.324,1.324,0,0,1-.585.694,1.288,1.288,0,0,0-1-1.149,1.306,1.306,0,0,0-.91.152A.72.72,0,0,1,60.288,18.081ZM46.156,20.162,44.878,16.3a1.269,1.269,0,0,1,.065-.975,1.282,1.282,0,0,1,.737-.65,1.307,1.307,0,0,1,.975.065,1.283,1.283,0,0,1,.65.737l1.279,3.858a1.284,1.284,0,0,1-.8,1.626A1.259,1.259,0,0,1,46.156,20.162Z" transform="translate(6.707 8.87)" fill="#4b5320"/>
      <path id="Path_43" data-name="Path 43" d="M30.069,20.546a1.281,1.281,0,0,0,1.279-1.279V15.409a1.281,1.281,0,0,0-1.279-1.279,1.3,1.3,0,0,0-1.279,1.279v3.858A1.267,1.267,0,0,0,30.069,20.546Z" transform="translate(33.003 15.791)" fill="#4b5320"/>
      <path id="Path_44" data-name="Path 44" d="M1.819,30.292A6.667,6.667,0,0,0,8,35.516V43.3a1.281,1.281,0,0,0,1.279,1.279A1.3,1.3,0,0,0,10.554,43.3V35.472a8.835,8.835,0,0,0,7.716-8.865,11.848,11.848,0,0,0-2.3-6.546,8.561,8.561,0,0,0,1.019-3.728,5.41,5.41,0,0,0-2.623-4.855C14.065,8.726,12.5,4.76,8,4.76c-2.471,0-5.137,2.471-5.137,6.481a4.492,4.492,0,0,0,.433,1.972A6.189,6.189,0,0,0,.28,18.892,7.436,7.436,0,0,0,2.447,24.4,8.766,8.766,0,0,0,1.819,30.292ZM5.655,15.034a1.241,1.241,0,0,0,1.062-1.04,1.3,1.3,0,0,0-.65-1.365,1.507,1.507,0,0,1-.65-1.365c0-2.731,1.691-3.9,2.579-3.9,3.771,0,3.858,4.92,3.858,5.137a1.281,1.281,0,0,0,1.279,1.279,2.763,2.763,0,0,1,1.279,2.579,6.375,6.375,0,0,1-1.062,3.121A1.279,1.279,0,0,0,13.5,21.1a9.254,9.254,0,0,1,2.189,5.505,6.21,6.21,0,0,1-5.137,6.285v-12.7a1.281,1.281,0,0,0-1.279-1.279A1.3,1.3,0,0,0,8,20.192v12.7a4.11,4.11,0,0,1-3.685-3.229,5.886,5.886,0,0,1,.845-4.79,1.208,1.208,0,0,0,.238-1.04,1.265,1.265,0,0,0-.65-.867c-.087-.043-1.886-1.084-1.886-4.053C2.859,15.575,5.373,15.077,5.655,15.034Z" transform="translate(-0.28 4.852)" fill="#4b5320"/>
      <path id="Path_45" data-name="Path 45" d="M37.243,28.437a1.306,1.306,0,0,0-1.669.737c-.108.282-2.644,6.979-2.644,12.029a1.281,1.281,0,0,0,1.279,1.279A1.3,1.3,0,0,0,35.488,41.2c0-4.573,2.449-11.032,2.493-11.1A1.28,1.28,0,0,0,37.243,28.437Z" transform="translate(37.836 32.392)" fill="#4b5320"/>
      <path id="Path_46" data-name="Path 46" d="M35.794,25.39a1.281,1.281,0,0,0-1.279,1.279V44.593C34.493,40,31.958,34.125,31.849,33.865a1.286,1.286,0,0,0-2.362,1.019c.022.065,2.471,5.7,2.471,9.753a1.281,1.281,0,0,0,1.279,1.279,1.267,1.267,0,0,0,1.279-1.279,1.279,1.279,0,0,0,2.558,0V26.647A1.263,1.263,0,0,0,35.794,25.39Z" transform="translate(33.693 28.936)" fill="#4b5320"/>
      <path id="Path_47" data-name="Path 47" d="M28.959,30.829a1.279,1.279,0,0,0-.65,1.691,16.083,16.083,0,0,1,1.17,5.9,1.281,1.281,0,0,0,1.279,1.279,1.3,1.3,0,0,0,1.279-1.279,18.943,18.943,0,0,0-1.387-6.936A1.293,1.293,0,0,0,28.959,30.829Z" transform="translate(32.314 35.158)" fill="#4b5320"/>
      <path id="Path_48" data-name="Path 48" d="M1.374,31.644a1.291,1.291,0,0,0-.13,1.8c0,.022.975,1.214.975,4.291A1.281,1.281,0,0,0,3.5,39.013a1.3,1.3,0,0,0,1.279-1.279c0-4.14-1.452-5.83-1.626-6A1.264,1.264,0,0,0,1.374,31.644Z" transform="translate(0.49 35.86)" fill="#4b5320"/>
      <path id="Path_49" data-name="Path 49" d="M9.232,25.39a1.281,1.281,0,0,0-1.279,1.279V44.615C7.931,38.2,4.095,31.437,3.922,31.155a1.3,1.3,0,0,0-1.756-.477,1.327,1.327,0,0,0-.477,1.777c.043.065,3.685,6.481,3.685,12.2a1.281,1.281,0,0,0,1.279,1.279,1.267,1.267,0,0,0,1.279-1.279,1.279,1.279,0,0,0,2.558,0V26.669A1.236,1.236,0,0,0,9.232,25.39Z" transform="translate(1.172 28.936)" fill="#4b5320"/>
      <path id="Path_50" data-name="Path 50" d="M11.349,33.05c-.13.087-3.078,2.319-3.1,7.434a39.909,39.909,0,0,1,1.235-9.905,1.283,1.283,0,0,0-2.471-.694A41.706,41.706,0,0,0,5.67,40.506a1.281,1.281,0,0,0,1.279,1.279,1.267,1.267,0,0,0,1.279-1.279,1.279,1.279,0,0,0,2.558,0c0-3.75,1.951-5.31,2.059-5.4a1.278,1.278,0,0,0,.26-1.8A1.227,1.227,0,0,0,11.349,33.05Z" transform="translate(6.012 33.088)" fill="#4b5320"/>
      <path id="Path_51" data-name="Path 51" d="M25.142,32.7H23.863a1.281,1.281,0,0,1-1.279-1.279,1.279,1.279,0,0,0-2.558,0A1.3,1.3,0,0,1,18.748,32.7a1.281,1.281,0,0,1-1.279-1.279,1.279,1.279,0,0,0-2.558,0A1.3,1.3,0,0,1,13.633,32.7H12.289a1.281,1.281,0,0,0-1.279,1.279,1.3,1.3,0,0,0,1.279,1.279h1.279a3.88,3.88,0,0,0,2.579-.975,4.078,4.078,0,0,0,5.137,0,3.839,3.839,0,0,0,2.579.975h1.279a1.281,1.281,0,0,0,1.279-1.279A1.3,1.3,0,0,0,25.142,32.7Z" transform="translate(12.246 34.481)" fill="#4b5320"/>
      <path id="Path_52" data-name="Path 52" d="M32.708,33.288a1.281,1.281,0,0,1-1.279-1.279,1.279,1.279,0,0,0-2.558,0,1.279,1.279,0,1,1-2.558,0,1.279,1.279,0,0,0-2.558,0,1.3,1.3,0,0,1-1.279,1.279H21.2a1.281,1.281,0,0,0-1.279,1.279A1.3,1.3,0,0,0,21.2,35.845h1.279a3.783,3.783,0,0,0,2.558-.975,4.078,4.078,0,0,0,5.137,0,3.839,3.839,0,0,0,2.579.975,1.281,1.281,0,0,0,1.279-1.279A1.319,1.319,0,0,0,32.708,33.288Z" transform="translate(22.648 35.17)" fill="#4b5320"/>
      <path id="Path_53" data-name="Path 53" d="M38.048,24.988a1.281,1.281,0,0,1-1.279-1.279,1.279,1.279,0,1,0-2.558,0,1.279,1.279,0,0,1-2.558,0,1.279,1.279,0,1,0-2.558,0,1.3,1.3,0,0,1-1.279,1.279H26.539a1.281,1.281,0,0,0-1.279,1.279,1.3,1.3,0,0,0,1.279,1.279h1.279a3.783,3.783,0,0,0,2.558-.975,4.078,4.078,0,0,0,5.137,0,3.839,3.839,0,0,0,2.579.975H39.37a1.281,1.281,0,0,0,1.279-1.279,1.3,1.3,0,0,0-1.279-1.279Z" transform="translate(28.882 25.481)" fill="#4b5320"/>
      <path id="Path_54" data-name="Path 54" d="M44.112,31.8a12.08,12.08,0,0,1-2.8-.325,1.264,1.264,0,0,0-.91-.585,1.3,1.3,0,0,0-.694.152c-.694-.238-1.344-.5-1.951-.737a10.4,10.4,0,0,0-3.923-1.062,11.393,11.393,0,0,0-4.833,1.517,13.1,13.1,0,0,1-2.428,1,5.26,5.26,0,0,0,.845-2.514,5.651,5.651,0,0,0-5.137-5.137,6.567,6.567,0,0,0-4.725,2.276,4.706,4.706,0,0,1-2.449,1.539,1.914,1.914,0,0,0-1.409.412,1.3,1.3,0,0,0-.282,1.409,1.665,1.665,0,0,0,1.777.78,14.985,14.985,0,0,1,3.273.759l.455.13a8.87,8.87,0,0,0-.477,2.991,1.281,1.281,0,0,0,1.279,1.279,1.3,1.3,0,0,0,1.279-1.279,4.506,4.506,0,0,1,.564-2.6,1.3,1.3,0,0,0,.954-1.235,1.281,1.281,0,0,0-1.279-1.279h-.217a7.953,7.953,0,0,1-1.8-.455c-.108-.043-.238-.065-.368-.108.173-.152.325-.282.477-.433.954-.889,1.691-1.582,2.969-1.582a3.157,3.157,0,0,1,2.558,2.579,3.825,3.825,0,0,1-.585,1.387c-.455.8-1,1.8-.433,2.753a2.534,2.534,0,0,0,2.3,1,9.575,9.575,0,0,0,3.988-1.3,9.518,9.518,0,0,1,3.706-1.257,8.443,8.443,0,0,1,2.948.867c.5.217,1.062.433,1.647.65A3.917,3.917,0,0,1,37.09,34.6a1.264,1.264,0,0,0-.5,1.734,1.278,1.278,0,0,0,1.127.672,1.342,1.342,0,0,0,.629-.152,6.464,6.464,0,0,0,2.666-2.731,12.02,12.02,0,0,0,1.322.217,1.465,1.465,0,0,1-.412.737,1.3,1.3,0,0,0,.065,1.821,1.229,1.229,0,0,0,.867.347,1.282,1.282,0,0,0,.954-.412,3.748,3.748,0,0,0,.932-1.626c.108-.325.282-.8.585-1.561a1.3,1.3,0,0,0-.13-1.192A1.265,1.265,0,0,0,44.112,31.8Z" transform="translate(14.95 27.442)" fill="#4b5320"/>
      <path id="Path_55" data-name="Path 55" d="M18.384,27.472l1.149-.065a19.621,19.621,0,0,1-.433,4.942,1.315,1.315,0,0,0,.867,1.6,1.074,1.074,0,0,0,.368.043,1.294,1.294,0,0,0,1.235-.932,22.892,22.892,0,0,0,.542-5.744h.2c.325,0,.65.022,1,.022a22.552,22.552,0,0,0,.542,5.722A1.294,1.294,0,0,0,25.081,34a2.135,2.135,0,0,0,.368-.043,1.3,1.3,0,0,0,.867-1.6,19.361,19.361,0,0,1-.433-4.92c.13,0,.282.022.412.022,1.214.065,2.276.108,3.164.108,2.059,0,3.273-.282,3.771-1.344.564-1.257-.52-2.406-.867-2.774a37.439,37.439,0,0,1-3.49-4.356c2.059.217,2.536-.52,2.731-.845.78-1.257-.455-2.579-.867-3.013a23.61,23.61,0,0,1-3.229-4.7,2.195,2.195,0,0,0,1.951-.932C30.2,8.334,29,7.1,28.614,6.686a47.208,47.208,0,0,1-4.4-5.809,1.339,1.339,0,0,0-2.167,0,47.208,47.208,0,0,1-4.4,5.809c-.39.412-1.582,1.647-.845,2.9a2.148,2.148,0,0,0,1.951.932,23.61,23.61,0,0,1-3.229,4.7c-.412.433-1.669,1.756-.867,3.013.2.325.65,1.062,2.731.845A37.438,37.438,0,0,1,13.9,23.44c-.477.5-1.6,1.691-1.019,2.926C13.464,27.732,15.2,27.645,18.384,27.472Zm2.883-9.667a1.274,1.274,0,0,0-.087-1.452,1.318,1.318,0,0,0-1-.5,1.227,1.227,0,0,0-.39.065,17.178,17.178,0,0,1-1.886.477,33.66,33.66,0,0,0,4.248-6.936A1.35,1.35,0,0,0,21.982,8.1a1.288,1.288,0,0,0-1.3-.412c-.2.043-.412.087-.629.13a44.746,44.746,0,0,0,3.056-3.945,41.768,41.768,0,0,0,3.056,3.945c-.217-.043-.412-.087-.629-.13a1.274,1.274,0,0,0-1.3.412,1.254,1.254,0,0,0-.173,1.365A35.259,35.259,0,0,0,28.311,16.4a17.179,17.179,0,0,1-1.886-.477,1.28,1.28,0,0,0-1.474,1.886,49.2,49.2,0,0,0,5.332,7.174c-1.019.043-2.6-.022-3.858-.087-1.235-.065-2.558-.13-3.88-.13h-.477c-1.387.022-2.666.087-3.815.152-.759.043-1.626.087-2.3.087A51.016,51.016,0,0,0,21.267,17.805Z" transform="translate(14.236 -0.325)" fill="#4b5320"/>
      <path id="Path_56" data-name="Path 56" d="M10.931,16.008c.282-.108,2.818-1,4.682,2.493.8,1.5,1.452,2.818,1.994,3.966,1.257,2.644,2.1,4.378,3.555,5.2a8.028,8.028,0,0,0,3.771.91c.3,0,.5-.022.564-.022a1.315,1.315,0,0,0,1.17-1.387A1.284,1.284,0,0,0,25.279,26a5.723,5.723,0,0,1-2.861-.564c-.737-.412-1.517-2.016-2.493-4.053-.564-1.17-1.214-2.536-2.037-4.075-2.428-4.53-6.264-4.356-7.954-3.641a1.272,1.272,0,0,0,1,2.341Z" transform="translate(10.093 14.801)" fill="#4b5320"/>
      <path id="Path_57" data-name="Path 57" d="M13.6,21.138c-.282-3.836-2.232-5.05-2.449-5.158a1.268,1.268,0,0,0-1.712.455,1.311,1.311,0,0,0,.39,1.756c.043.022,1.019.715,1.192,3.143.585,8,4.985,10.49,5.18,10.577a1.259,1.259,0,0,0,.607.152,1.3,1.3,0,0,0,1.127-.65,1.276,1.276,0,0,0-.477-1.734C17.309,29.591,14.08,27.64,13.6,21.138Z" transform="translate(10.195 17.756)" fill="#4b5320"/>
    </g>
    <rect id="Rectangle_11" data-name="Rectangle 11" width="77.457" height="77.457" fill="none"/>
  </g>
  <text id="Trails-2" data-name="Trails" transform="translate(12 105.932)" fill="#4b5320" font-size="18" font-family="LucidaBright, Lucida Bright"><tspan x="0" y="0">Trails</tspan></text>
</svg>
