<svg xmlns="http://www.w3.org/2000/svg" width="145.185" height="186.712" viewBox="0 0 145.185 186.712">
  <g id="logo" transform="translate(0)">
    <g id="waterloo1" transform="translate(0)">
      <path id="Path_334-2" data-name="Path 334-2" d="M0,136.712H145.185V0H0Zm140.134-4.074H4.481V4.359H140.134Z" fill="#4b5320"/>
      <path id="Path_342-2" data-name="Path 342-2" d="M68.671,100.4H35.457l-6.239,9.09H74.382ZM37.953,97.308h28.8l-5.52-8.376H43.665Zm59.9-55.873H53.312l5.52,8.186H91.613c2.3-2.665,4.128-5.521,6.191-8.186M52.16,76.8l-6.191,8.8H59.023l-5.712-8.8ZM3.3,76.8v8.852H9.491ZM121.178,17.353H3.3v9.518H110.187a106.425,106.425,0,0,1,10.991-9.518M100.3,38.341c2.3-2.9,4.8-5.759,6.911-8.186H3.3v4.426l2.544,3.76Zm-97,94.994H141.337v-9.043H3.3Zm9.839-83.524H46.16l6-7.948H7.908ZM3.54,121.2h137.8v-8.424H3.3ZM89.933,52.9H61.087l6.191,9.09H83.453c2.064-3.093,4.128-6.187,5.951-9.09M11.8,88.932H3.3v8.376H17.7ZM37.233,61.995,43.9,52.9h-28.8l5.952,9.09ZM76.014,73.7c1.824-2.9,3.648-5.759,5.232-8.424h-11.9L75.1,73.7Zm-47.036,0,6.191-8.424h-11.9L28.738,73.7ZM3.3,2.79V14.26H125.978a64.5,64.5,0,0,1,15.359-6.615V2.885ZM91.8,85.838h49.532V76.986H97.852c-2.064,2.9-4.128,5.759-6.191,8.852m49.532-47.592V33.487a31.338,31.338,0,0,0-9.167,4.759ZM84.221,97.308h57.115V88.932h-51.6c-1.824,2.9-3.648,5.521-5.472,8.376m16.031-23.8h41.037V65.279H106.731c-2.064,2.665-4.368,5.521-6.431,8.424M20.051,100.4H3.3v9.09H26.482Zm99.784-50.591h21.79V41.863h-13.1A73.853,73.853,0,0,0,119.834,50m-43.2,59.681h64.747V100.4H82.205c-1.872,3.093-3.888,6.187-5.52,9.09M109.227,61.9h32.109V52.9H117.051c-2.5,2.9-5.04,6-7.583,9.09" transform="translate(0.02 0.017)" fill="#4b5320"/>
    </g>
    <text id="Waterloo" transform="translate(29.093 182.712)" fill="#4b5320" font-size="20" font-family="LucidaBright-Demi, Lucida Bright" font-weight="300"><tspan x="0" y="0">Waterloo</tspan></text>
  </g>
</svg>
